<?xml version="1.0" encoding="UTF-8" standalone="no"?>
<!-- Created with Inkscape (http://www.inkscape.org/) -->

<svg
   width="6.3499999mm"
   height="6.3499999mm"
   viewBox="0 0 6.3499999 6.3499999"
   version="1.1"
   id="svg4036"
   inkscape:version="1.2.1 (9c6d41e410, 2022-07-14)"
   sodipodi:docname="system-users.svg"
   xmlns:inkscape="http://www.inkscape.org/namespaces/inkscape"
   xmlns:sodipodi="http://sodipodi.sourceforge.net/DTD/sodipodi-0.dtd"
   xmlns="http://www.w3.org/2000/svg"
   xmlns:svg="http://www.w3.org/2000/svg"
   xmlns:rdf="http://www.w3.org/1999/02/22-rdf-syntax-ns#"
   xmlns:cc="http://creativecommons.org/ns#"
   xmlns:dc="http://purl.org/dc/elements/1.1/">
  <defs
     id="defs4030" />
  <sodipodi:namedview
     id="base"
     pagecolor="#ffffff"
     bordercolor="#666666"
     borderopacity="1.0"
     inkscape:pageopacity="0.0"
     inkscape:pageshadow="2"
     inkscape:zoom="63.356768"
     inkscape:cx="11.277406"
     inkscape:cy="11.482593"
     inkscape:document-units="mm"
     inkscape:current-layer="layer1"
     showgrid="false"
     inkscape:window-width="3790"
     inkscape:window-height="2130"
     inkscape:window-x="50"
     inkscape:window-y="17"
     inkscape:window-maximized="1"
     inkscape:showpageshadow="2"
     inkscape:pagecheckerboard="0"
     inkscape:deskcolor="#d1d1d1" />
  <metadata
     id="metadata4033">
    <rdf:RDF>
      <cc:Work
         rdf:about="">
        <dc:format>image/svg+xml</dc:format>
        <dc:type
           rdf:resource="http://purl.org/dc/dcmitype/StillImage" />
        <dc:title />
      </cc:Work>
    </rdf:RDF>
  </metadata>
  <g
     inkscape:label="Layer 1"
     inkscape:groupmode="layer"
     id="layer1"
     transform="translate(-4.3879995,-61.027)">
    <rect
       y="61.027"
       x="4.3879995"
       height="6.3499999"
       width="6.3499999"
       id="rect4570-6"
       style="color:#000000;display:inline;overflow:visible;visibility:visible;opacity:0.01000001;fill:#000000;fill-opacity:0.00392157;stroke:none;stroke-width:1.32291663;marker:none;enable-background:accumulate" />
    <path
       inkscape:connector-curvature="0"
       d="m 7.2761384,62.796782 c -0.00159,0.912112 -1.3689673,0.912112 -1.3706686,0 -0.00159,-0.915517 1.3723779,-0.915517 1.3706686,0 z m -0.1540827,0.709373 c -0.1466453,0.142452 -0.3199686,0.207036 -0.5310928,0.207036 -0.2111111,0 -0.385244,-0.06637 -0.5318893,-0.20882 -0.2306293,0.083 -0.5064124,0.294195 -0.5067432,0.663062 l -7.937e-4,0.688043 c 0,0.124734 0.092953,0.225715 0.207891,0.225715 h 1.7033029 c 0.018468,-0.117373 0.077695,-0.214622 0.1676902,-0.296991 v -0.616824 c 0,-0.316803 -0.2291582,-0.583887 -0.5083439,-0.663957 z M 9.355012,63.98475 c -0.00159,0.912114 -1.36897,0.912114 -1.3706686,0 -0.00159,-0.915516 1.3723752,-0.915516 1.3706686,0 z m -0.1540854,0.709372 c -0.1466453,0.142451 -0.3199712,0.207041 -0.5310928,0.207041 -0.2111137,0 -0.3852466,-0.06637 -0.5318945,-0.208824 -0.2306241,0.083 -0.5064125,0.294195 -0.5067432,0.663063 l -7.938e-4,0.688044 c 0,0.124736 0.092956,0.225713 0.2078858,0.225713 h 1.6630941 c 0.1151731,0 0.2078884,-0.101896 0.2078884,-0.22846 v -0.685365 c 0,-0.316803 -0.2291583,-0.583888 -0.508344,-0.663958 z"
       style="color:#bebebe;fill:#ffffff;fill-opacity:1;fill-rule:evenodd;stroke-width:0.264583"
       id="path9180-6-2"
       sodipodi:nodetypes="ccccscccsccsccccccscccsssscc" />
  </g>
</svg>
