<?xml version="1.0" encoding="UTF-8" standalone="no"?>
<!-- Created with Inkscape (http://www.inkscape.org/) -->

<svg
   width="6.3499999mm"
   height="6.3499999mm"
   viewBox="0 0 6.3499999 6.3499999"
   version="1.1"
   id="svg938"
   inkscape:version="1.2.1 (9c6d41e410, 2022-07-14)"
   sodipodi:docname="system-log-out.svg"
   xmlns:inkscape="http://www.inkscape.org/namespaces/inkscape"
   xmlns:sodipodi="http://sodipodi.sourceforge.net/DTD/sodipodi-0.dtd"
   xmlns="http://www.w3.org/2000/svg"
   xmlns:svg="http://www.w3.org/2000/svg"
   xmlns:rdf="http://www.w3.org/1999/02/22-rdf-syntax-ns#"
   xmlns:cc="http://creativecommons.org/ns#"
   xmlns:dc="http://purl.org/dc/elements/1.1/">
  <defs
     id="defs932" />
  <sodipodi:namedview
     id="base"
     pagecolor="#ffffff"
     bordercolor="#666666"
     borderopacity="1.0"
     inkscape:pageopacity="0.0"
     inkscape:pageshadow="2"
     inkscape:zoom="22.4"
     inkscape:cx="13.616071"
     inkscape:cy="9.3080357"
     inkscape:document-units="mm"
     inkscape:current-layer="layer1"
     showgrid="false"
     inkscape:window-width="1997"
     inkscape:window-height="1026"
     inkscape:window-x="1839"
     inkscape:window-y="1104"
     inkscape:window-maximized="0"
     inkscape:showpageshadow="2"
     inkscape:pagecheckerboard="0"
     inkscape:deskcolor="#d1d1d1" />
  <metadata
     id="metadata935">
    <rdf:RDF>
      <cc:Work
         rdf:about="">
        <dc:format>image/svg+xml</dc:format>
        <dc:type
           rdf:resource="http://purl.org/dc/dcmitype/StillImage" />
        <dc:title />
      </cc:Work>
    </rdf:RDF>
  </metadata>
  <g
     inkscape:label="Layer 1"
     inkscape:groupmode="layer"
     id="layer1"
     transform="translate(-90.962997,-145.77)">
    <rect
       y="145.77"
       x="90.962997"
       height="6.3499999"
       width="6.3499999"
       id="rect4570-7"
       style="color:#000000;display:inline;overflow:visible;visibility:visible;opacity:0.01000001;fill:#000000;fill-opacity:0.00392157;stroke:none;stroke-width:1.32291663;marker:none;enable-background:accumulate" />
    <path
       inkscape:connector-curvature="0"
       d="m 95.178247,147.50018 c -0.655509,-0.50332 -1.569308,-0.50332 -2.224817,0 -0.798697,0.61326 -0.950771,1.76519 -0.337909,2.56441 0.612862,0.79922 1.764029,0.95139 2.562726,0.33813 l -0.30352,-0.39648 c -0.584917,0.44912 -1.415657,0.33993 -1.86448,-0.24537 -0.448823,-0.5853 -0.338214,-1.41509 0.246704,-1.86421 0.478383,-0.36732 1.139392,-0.36881 1.617776,-0.001 l 0.30352,-0.39499 z m 0.10989,0.6855 c -0.02898,0.0174 -0.04372,0.25073 -0.05075,0.51646 h -0.837638 v 0.49861 h 0.837638 c 0.007,0.26573 0.02177,0.49907 0.05075,0.51647 0.07653,0.0459 1.275338,-0.67388 1.275338,-0.76577 0,-0.0919 -1.198808,-0.81172 -1.275338,-0.76577 z"
       style="color:#000000;display:inline;overflow:visible;visibility:visible;fill:#ffffff;fill-opacity:1;fill-rule:evenodd;stroke:none;stroke-width:2.38125;marker:none;enable-background:accumulate"
       id="rect4747-6-8"
       sodipodi:nodetypes="ccsccsccccscccccss" />
  </g>
</svg>
