<?xml version="1.0" encoding="UTF-8" standalone="no"?>
<!-- Created with Inkscape (http://www.inkscape.org/) -->

<svg
   width="6.3499999mm"
   height="6.3499999mm"
   viewBox="0 0 6.3499999 6.3499999"
   version="1.1"
   id="svg5260"
   inkscape:version="1.2.1 (9c6d41e410, 2022-07-14)"
   sodipodi:docname="system-suspend-hibernate.svg"
   xmlns:inkscape="http://www.inkscape.org/namespaces/inkscape"
   xmlns:sodipodi="http://sodipodi.sourceforge.net/DTD/sodipodi-0.dtd"
   xmlns="http://www.w3.org/2000/svg"
   xmlns:svg="http://www.w3.org/2000/svg"
   xmlns:rdf="http://www.w3.org/1999/02/22-rdf-syntax-ns#"
   xmlns:cc="http://creativecommons.org/ns#"
   xmlns:dc="http://purl.org/dc/elements/1.1/">
  <defs
     id="defs5254" />
  <sodipodi:namedview
     id="base"
     pagecolor="#ffffff"
     bordercolor="#666666"
     borderopacity="1.0"
     inkscape:pageopacity="0.0"
     inkscape:pageshadow="2"
     inkscape:zoom="44.8"
     inkscape:cx="6.5066964"
     inkscape:cy="10.145089"
     inkscape:document-units="mm"
     inkscape:current-layer="layer1"
     showgrid="false"
     inkscape:window-width="3790"
     inkscape:window-height="2130"
     inkscape:window-x="50"
     inkscape:window-y="17"
     inkscape:window-maximized="1"
     inkscape:showpageshadow="2"
     inkscape:pagecheckerboard="0"
     inkscape:deskcolor="#d1d1d1" />
  <metadata
     id="metadata5257">
    <rdf:RDF>
      <cc:Work
         rdf:about="">
        <dc:format>image/svg+xml</dc:format>
        <dc:type
           rdf:resource="http://purl.org/dc/dcmitype/StillImage" />
        <dc:title />
      </cc:Work>
    </rdf:RDF>
  </metadata>
  <g
     inkscape:label="Layer 1"
     inkscape:groupmode="layer"
     id="layer1"
     transform="translate(120.856,1.6049999)">
    <rect
       y="-1.6049999"
       x="-120.856"
       height="6.3499999"
       width="6.3499999"
       id="rect4570-7-1-0"
       style="color:#000000;display:inline;overflow:visible;visibility:visible;opacity:0.01000001;fill:#000000;fill-opacity:0.00392157;stroke:none;stroke-width:1.32291663;marker:none;enable-background:accumulate" />
    <path
       inkscape:connector-curvature="0"
       d="m -117.246,-0.19899361 c -0.31013,-0.0833543 -0.63753,-0.0836411 -0.94751,-8.202e-4 -0.97249,0.2597838 -1.55179,1.26569471 -1.2903,2.23864491 0.2615,0.9729481 1.26844,1.5540149 2.24092,1.2942353 0.97249,-0.2597838 1.55179,-1.2656965 1.29029,-2.2386449 l -0.48105,0.1296467 c 0.19148,0.7124348 -0.22764,1.4374963 -0.93973,1.6277211 -0.7121,0.1902227 -1.4379,-0.2301764 -1.62938,-0.9426091 -0.19147,-0.7124305 0.22764,-1.43749631 0.93974,-1.62771691 0.22544,-0.0602207 0.46183,-0.060017 0.68737,6.35e-4 l 0.12965,-0.4810482 z m -0.43539,0.8206296 c 0.0988,0.012682 0.17009,0.073496 0.16846,0.1438264 l 0.005,0.59101231 h 0.62367 c 0.27782,-0.00283 0.26562,0.4185094 -0.0122,0.4157569 h -0.82177 c -0.11345,-8.2e-6 -0.20543,-0.064397 -0.20544,-0.1438243 V 0.76546239 c -0.002,-0.091279 0.11588,-0.160946 0.24397,-0.1438264 z m 1.10881,-0.512485 c -0.17221,0 -0.31183,0.1396085 -0.31183,0.3118221 0,0.1722136 0.13962,0.3118199 0.31183,0.3118199 0.17222,0 0.31183,-0.1396063 0.31183,-0.3118199 0,-0.1722157 -0.13961,-0.3118221 -0.31183,-0.3118221 z"
       style="color:#000000;font-style:normal;font-variant:normal;font-weight:normal;font-stretch:normal;font-size:xx-small;line-height:normal;font-family:sans-serif;-inkscape-font-specification:sans-serif;text-indent:0;text-align:start;text-decoration:none;text-decoration-line:none;letter-spacing:normal;word-spacing:normal;text-transform:none;writing-mode:lr-tb;direction:ltr;baseline-shift:baseline;text-anchor:start;clip-rule:nonzero;display:inline;overflow:visible;visibility:visible;color-interpolation:sRGB;color-interpolation-filters:linearRGB;fill:#ffffff;fill-opacity:1;fill-rule:evenodd;stroke:none;stroke-width:2.75839;marker:none;color-rendering:auto;image-rendering:auto;shape-rendering:auto;text-rendering:auto;enable-background:accumulate"
       id="path13-9-1-5-0-0"
       sodipodi:nodetypes="ccccccccscccccccccccccsssss" />
  </g>
</svg>
