<?xml version="1.0" encoding="UTF-8" standalone="no"?>
<svg
   xmlns:dc="http://purl.org/dc/elements/1.1/"
   xmlns:cc="http://creativecommons.org/ns#"
   xmlns:rdf="http://www.w3.org/1999/02/22-rdf-syntax-ns#"
   xmlns:svg="http://www.w3.org/2000/svg"
   xmlns="http://www.w3.org/2000/svg"
   xmlns:xlink="http://www.w3.org/1999/xlink"
   xmlns:sodipodi="http://sodipodi.sourceforge.net/DTD/sodipodi-0.dtd"
   xmlns:inkscape="http://www.inkscape.org/namespaces/inkscape"
   viewBox="0 0 22 22"
   id="svg"
   version="1.1"
   inkscape:version="1.0 (4035a4fb49, 2020-05-01)"
   width="22"
   height="22"
   sodipodi:docname="close.svg">
  <defs
     id="defs81">
    <linearGradient
       inkscape:collect="always"
       id="linearGradient863">
      <stop
         style="stop-color:#ff4d62;stop-opacity:1;"
         offset="0"
         id="stop859" />
      <stop
         style="stop-color:#ffc300;stop-opacity:1"
         offset="1"
         id="stop861" />
    </linearGradient>
    <style
       id="current-color-scheme"
       type="text/css">
      .ColorScheme-Text {
        color:#7B7C7E;
      }
      .ColorScheme-Background{
        color:#EFF0F1;
      }
      .ColorScheme-Highlight{
        color:#3DAEE6;
      }
      .ColorScheme-ViewText {
        color:#7B7C7E;
      }
      .ColorScheme-ViewBackground{
        color:#FCFCFC;
      }
      .ColorScheme-ViewHover {
        color:#3DAEE6;
      }
      .ColorScheme-ViewFocus{
        color:#1E92FF;
      }
      .ColorScheme-ButtonText {
        color:#7B7C7E;
      }
      .ColorScheme-ButtonBackground{
        color:#EFF0F1;
      }
      .ColorScheme-ButtonHover {
        color:#3DAEE6;
      }
      .ColorScheme-ButtonFocus{
        color:#1E92FF;
      }
</style>
    <linearGradient
       inkscape:collect="always"
       xlink:href="#linearGradient863"
       id="linearGradient867"
       x1="3"
       y1="11"
       x2="19"
       y2="11"
       gradientUnits="userSpaceOnUse" />
  </defs>
  <metadata
     id="metadata34">
    <rdf:RDF>
      <cc:Work
         rdf:about="">
        <dc:format>image/svg+xml</dc:format>
        <dc:type
           rdf:resource="http://purl.org/dc/dcmitype/StillImage" />
        <dc:title></dc:title>
      </cc:Work>
    </rdf:RDF>
  </metadata>
  <sodipodi:namedview
     pagecolor="#fafafa"
     bordercolor="#666666"
     borderopacity="1"
     objecttolerance="10"
     gridtolerance="10"
     guidetolerance="10"
     inkscape:pageopacity="0"
     inkscape:pageshadow="2"
     inkscape:window-width="3810"
     inkscape:window-height="2124"
     id="namedview32"
     showgrid="true"
     inkscape:zoom="27.453126"
     inkscape:cx="-5.8438754"
     inkscape:cy="19.044029"
     inkscape:window-x="0"
     inkscape:window-y="36"
     inkscape:window-maximized="1"
     inkscape:current-layer="svg"
     borderlayer="true"
     showguides="true"
     inkscape:guide-bbox="true"
     inkscape:snap-bbox="true"
     inkscape:showpageshadow="false"
     inkscape:document-rotation="0">
    <inkscape:grid
       originy="0"
       originx="-22"
       type="xygrid"
       id="grid3046"
       empspacing="4"
       visible="true"
       enabled="true"
       snapvisiblegridlinesonly="true" />
  </sodipodi:namedview>
  <g
     style="clip-rule:evenodd;fill-rule:evenodd;stroke-linejoin:round;stroke-miterlimit:1.41421"
     id="list-remove">
    <path
       inkscape:connector-curvature="0"
       id="path2-5"
       style="fill:url(#linearGradient867);fill-opacity:1"
       d="m 11,3 c 4.415,0 8,3.585 8,8 0,4.415 -3.585,8 -8,8 C 6.585,19 3,15.415 3,11 3,6.585 6.585,3 11,3 Z M 5.71,6.417 C 4.645,7.646 4,9.248 4,11 c 0,3.863 3.137,7 7,7 1.752,0 3.354,-0.645 4.583,-1.71 z m 9.873,9.873 0.029,-0.025 0.014,-0.013 z m 0.093,-0.083 -0.043,0.039 c 0.029,-0.026 0.057,-0.051 0.086,-0.077 z m 0.093,-0.084 -0.043,0.039 c 0.029,-0.026 0.056,-0.052 0.084,-0.078 z m 0.091,-0.087 -0.042,0.04 c 0.028,-0.026 0.055,-0.053 0.082,-0.079 z m 0.089,-0.087 -0.041,0.04 c 0.027,-0.027 0.054,-0.054 0.081,-0.081 z m 0.087,-0.089 -0.039,0.04 c 0.026,-0.027 0.053,-0.054 0.079,-0.082 z m 0.087,-0.091 -0.039,0.041 c 0.026,-0.028 0.052,-0.055 0.078,-0.084 z m 0.084,-0.093 -0.038,0.043 c 0.026,-0.029 0.051,-0.057 0.077,-0.086 z m 0.045,-0.05 C 17.34,14.392 18,12.772 18,11 18,7.137 14.863,4 11,4 9.228,4 7.608,4.66 6.374,5.748 L 6.417,5.71 16.29,15.583 Z M 5.735,6.388 5.71,6.417 5.748,6.374 Z M 5.831,6.281 C 5.805,6.31 5.78,6.338 5.754,6.367 L 5.793,6.324 Z M 5.916,6.19 C 5.89,6.218 5.864,6.245 5.838,6.274 L 5.877,6.231 Z M 6.003,6.1 C 5.977,6.127 5.95,6.154 5.924,6.182 L 5.964,6.14 Z M 6.092,6.011 C 6.065,6.038 6.038,6.065 6.011,6.092 L 6.051,6.051 Z M 6.182,5.924 C 6.154,5.95 6.127,5.977 6.1,6.003 L 6.14,5.964 Z M 6.274,5.838 C 6.245,5.864 6.218,5.89 6.19,5.916 L 6.231,5.877 Z M 6.367,5.754 C 6.338,5.78 6.31,5.805 6.281,5.831 L 6.324,5.793 Z" />
    <rect
       y="0"
       x="0"
       height="22"
       width="22"
       id="rect817-8"
       style="fill:#fafafa;fill-opacity:0;stroke-width:0.935176" />
  </g>
</svg>
