<?xml version="1.0" encoding="UTF-8" standalone="no"?>
<svg
   xmlns:dc="http://purl.org/dc/elements/1.1/"
   xmlns:cc="http://creativecommons.org/ns#"
   xmlns:rdf="http://www.w3.org/1999/02/22-rdf-syntax-ns#"
   xmlns:svg="http://www.w3.org/2000/svg"
   xmlns="http://www.w3.org/2000/svg"
   xmlns:sodipodi="http://sodipodi.sourceforge.net/DTD/sodipodi-0.dtd"
   xmlns:inkscape="http://www.inkscape.org/namespaces/inkscape"
   version="1.1"
   id="svg2"
   viewBox="0 0 32 32"
   sodipodi:docname="logout.svg"
   inkscape:version="1.0 (4035a4fb49, 2020-05-01)"
   width="32"
   height="32">
  <sodipodi:namedview
     pagecolor="#ffffff"
     bordercolor="#666666"
     borderopacity="1"
     objecttolerance="10"
     gridtolerance="10"
     guidetolerance="10"
     inkscape:pageopacity="0"
     inkscape:pageshadow="2"
     inkscape:window-width="3840"
     inkscape:window-height="2160"
     id="namedview66"
     showgrid="false"
     inkscape:zoom="39.816152"
     inkscape:cx="19.962968"
     inkscape:cy="13.40155"
     inkscape:window-x="0"
     inkscape:window-y="0"
     inkscape:window-maximized="0"
     inkscape:current-layer="system-log-out"
     inkscape:showpageshadow="false"
     showguides="false"
     inkscape:document-rotation="0" />
  <metadata
     id="metadata62">
    <rdf:RDF>
      <cc:Work
         rdf:about="">
        <dc:format>image/svg+xml</dc:format>
        <dc:type
           rdf:resource="http://purl.org/dc/dcmitype/StillImage" />
        <dc:title />
      </cc:Work>
    </rdf:RDF>
  </metadata>
  <defs
     id="defs3051">
    <style
       type="text/css"
       id="current-color-scheme">
      .ColorScheme-Text {
        color:#C3C7D1;
      }
      .ColorScheme-Background {
        color:#ffffff;
      }
      .ColorScheme-Highlight {
        color:#009bff;
      }
      .ColorScheme-ViewText {
        color:#C3C7D1;
      }
      .ColorScheme-ViewBackground {
        color:#ffffff;
      }
      .ColorScheme-ViewHover {
        color:#2dacff;
      }
      .ColorScheme-ViewFocus{
        color:#009bff;
      }
      .ColorScheme-ButtonText {
        color:#C3C7D1;
      }
      .ColorScheme-ButtonBackground {
        color:#ffffff;
      }
      .ColorScheme-ButtonHover {
        color:#2dacff;
      }
      .ColorScheme-ButtonFocus{
        color:#009bff;
      }
      </style>
    <linearGradient
       gradientUnits="userSpaceOnUse"
       gradientTransform="matrix(1.1807231,0,0,1.152802,-92.120519,-77.655116)"
       id="_lgradient_30"
       x1="84.740021"
       y1="81.676857"
       x2="98.057564"
       y2="81.676857">
      <stop
         offset="0%"
         stop-opacity="1"
         style="stop-color:rgb(88,0,226)"
         id="stop9" />
      <stop
         offset="100%"
         stop-opacity="1"
         style="stop-color:rgb(255,0,230)"
         id="stop11" />
    </linearGradient>
    <linearGradient
       id="_lgradient_31"
       x1="0"
       y1="0.5"
       x2="1"
       y2="0.5"
       gradientTransform="matrix(28,0,0,28.000594,1.7961501,2.1127368)"
       gradientUnits="userSpaceOnUse">
      <stop
         offset="0%"
         stop-opacity="1"
         style="stop-color:rgb(88,0,226)"
         id="stop16" />
      <stop
         offset="100%"
         stop-opacity="1"
         style="stop-color:rgb(255,0,230)"
         id="stop18" />
    </linearGradient>
    <linearGradient
       gradientUnits="userSpaceOnUse"
       gradientTransform="matrix(1.3482934,0,0,1.3185393,-76.665046,-102.14916)"
       id="_lgradient_47"
       x1="60.00079"
       y1="85.542641"
       x2="69.545692"
       y2="85.542641">
      <stop
         offset="0%"
         stop-opacity="1"
         style="stop-color:rgb(88,0,226)"
         id="stop27" />
      <stop
         offset="100%"
         stop-opacity="1"
         style="stop-color:rgb(255,0,230)"
         id="stop29" />
    </linearGradient>
    <linearGradient
       id="_lgradient_48"
       x1="0"
       y1="0.5"
       x2="1"
       y2="0.5"
       gradientTransform="matrix(21.333334,0,0,21.333334,0.0016241,-0.3211577)"
       gradientUnits="userSpaceOnUse">
      <stop
         offset="0%"
         stop-opacity="1"
         style="stop-color:rgb(88,0,226)"
         id="stop34" />
      <stop
         offset="100%"
         stop-opacity="1"
         style="stop-color:rgb(255,0,230)"
         id="stop36" />
    </linearGradient>
    <linearGradient
       id="_lgradient_55"
       x1="0"
       y1="0.5"
       x2="1"
       y2="0.5"
       gradientTransform="matrix(18.261382,0,0,18.261384,6.8360137,6.8565346)"
       gradientUnits="userSpaceOnUse">
      <stop
         offset="0%"
         stop-opacity="1"
         style="stop-color:rgb(255,153,102)"
         id="stop107" />
      <stop
         offset="98.26086956521739%"
         stop-opacity="1"
         style="stop-color:rgb(255,94,98)"
         id="stop109" />
    </linearGradient>
    <linearGradient
       gradientTransform="matrix(1.0769229,0,0,1.0769232,-24.418443,-69.628697)"
       gradientUnits="userSpaceOnUse"
       id="_lgradient_56"
       x1="28.771999"
       y1="79.5"
       x2="46.228001"
       y2="79.5">
      <stop
         offset="0%"
         stop-opacity="1"
         style="stop-color:rgb(255,153,102)"
         id="stop112" />
      <stop
         offset="98.26086956521739%"
         stop-opacity="1"
         style="stop-color:rgb(255,94,98)"
         id="stop114" />
    </linearGradient>
    <linearGradient
       id="_lgradient_57"
       x1="0"
       y1="0.5"
       x2="1"
       y2="0.5"
       gradientTransform="matrix(27.999997,0,0,28,1.966163,1.9866881)"
       gradientUnits="userSpaceOnUse">
      <stop
         offset="0%"
         stop-opacity="1"
         style="stop-color:rgb(255,153,102)"
         id="stop119" />
      <stop
         offset="98.26086956521739%"
         stop-opacity="1"
         style="stop-color:rgb(255,94,98)"
         id="stop121" />
    </linearGradient>
    <linearGradient
       id="_lgradient_58"
       x1="0"
       y1="0.5"
       x2="1"
       y2="0.5"
       gradientTransform="matrix(14.609885,0,0,14.128909,3.3597622,4.0727295)"
       gradientUnits="userSpaceOnUse">
      <stop
         offset="0%"
         stop-opacity="1"
         style="stop-color:rgb(255,153,102)"
         id="stop130" />
      <stop
         offset="98.26086956521739%"
         stop-opacity="1"
         style="stop-color:rgb(255,94,98)"
         id="stop132" />
    </linearGradient>
    <linearGradient
       gradientTransform="matrix(1.2445596,0,0,1.2035871,-3.6471084,-91.768907)"
       gradientUnits="userSpaceOnUse"
       id="_lgradient_59"
       x1="5.3800001"
       y1="85.5"
       x2="17.620001"
       y2="85.5">
      <stop
         offset="0%"
         stop-opacity="1"
         style="stop-color:rgb(255,153,102)"
         id="stop135" />
      <stop
         offset="98.26086956521739%"
         stop-opacity="1"
         style="stop-color:rgb(255,94,98)"
         id="stop137" />
    </linearGradient>
    <linearGradient
       id="_lgradient_60"
       x1="0"
       y1="0.5"
       x2="1"
       y2="0.5"
       gradientTransform="matrix(22.402073,0,0,21.664567,-0.5357089,0.30550149)"
       gradientUnits="userSpaceOnUse">
      <stop
         offset="0%"
         stop-opacity="1"
         style="stop-color:rgb(255,153,102)"
         id="stop142" />
      <stop
         offset="98.26086956521739%"
         stop-opacity="1"
         style="stop-color:rgb(255,94,98)"
         id="stop144" />
    </linearGradient>
    <linearGradient
       id="_lgradient_14"
       x1="0"
       y1="0.5"
       x2="1"
       y2="0.5"
       gradientTransform="matrix(28.000003,0,0,28.000001,1.8087433,2.1151544)"
       gradientUnits="userSpaceOnUse">
      <stop
         offset="0%"
         stop-opacity="1"
         style="stop-color:rgb(0,255,169)"
         id="stop147" />
      <stop
         offset="100%"
         stop-opacity="1"
         style="stop-color:rgb(240,116,179)"
         id="stop149" />
    </linearGradient>
    <linearGradient
       id="_lgradient_15"
       x1="0"
       y1="0.5"
       x2="1"
       y2="0.5"
       gradientTransform="matrix(-21.951523,0,0,21.61011,21.87215,0.163323)"
       gradientUnits="userSpaceOnUse">
      <stop
         offset="0%"
         stop-opacity="1"
         style="stop-color:rgb(0,255,169)"
         id="stop158" />
      <stop
         offset="100%"
         stop-opacity="1"
         style="stop-color:rgb(240,116,179)"
         id="stop160" />
    </linearGradient>
    <linearGradient
       id="_lgradient_12"
       x1="0"
       y1="0.5"
       x2="1"
       y2="0.5"
       gradientTransform="matrix(28,0,0,28,1.8201499,1.7452183)"
       gradientUnits="userSpaceOnUse">
      <stop
         offset="0%"
         stop-opacity="1"
         style="stop-color:rgb(255,224,49)"
         id="stop125" />
      <stop
         offset="100%"
         stop-opacity="1"
         style="stop-color:rgb(250,0,117)"
         id="stop127" />
    </linearGradient>
    <linearGradient
       id="_lgradient_13"
       x1="0"
       y1="0.5"
       x2="1"
       y2="0.5"
       gradientTransform="matrix(21.907734,0,0,21.344431,0.281331,0.622092)"
       gradientUnits="userSpaceOnUse">
      <stop
         offset="0%"
         stop-opacity="1"
         style="stop-color:rgb(255,224,49)"
         id="stop136" />
      <stop
         offset="100%"
         stop-opacity="1"
         style="stop-color:rgb(250,0,117)"
         id="stop138" />
    </linearGradient>
    <linearGradient
       id="_lgradient_4"
       x1="0"
       y1="0.5"
       x2="1"
       y2="0.5"
       gradientTransform="matrix(28,0,0,28,1.989041,2.0344726)"
       gradientUnits="userSpaceOnUse">
      <stop
         offset="0%"
         stop-opacity="1"
         style="stop-color:rgb(67,233,123)"
         id="stop57" />
      <stop
         offset="97.82608695652173%"
         stop-opacity="1"
         style="stop-color:rgb(56,249,215)"
         id="stop59" />
    </linearGradient>
    <linearGradient
       id="_lgradient_5"
       x1="0"
       y1="0.5"
       x2="1"
       y2="0.5"
       gradientTransform="matrix(21.528625,0,0,21.414821,0.34500001,0.301332)"
       gradientUnits="userSpaceOnUse">
      <stop
         offset="0%"
         stop-opacity="1"
         style="stop-color:rgb(67,233,123)"
         id="stop68" />
      <stop
         offset="97.82608695652173%"
         stop-opacity="1"
         style="stop-color:rgb(56,249,215)"
         id="stop70" />
    </linearGradient>
  </defs>
  <g
     style="clip-rule:evenodd;fill-rule:evenodd;stroke-linejoin:round;stroke-miterlimit:1.41421"
     id="system-log-out">
    <rect
       ry="1.0085471"
       y="0"
       x="0"
       height="32"
       width="32"
       id="rect817-28"
       style="fill:#000000;fill-opacity:0;stroke-width:1.00855;stroke-miterlimit:1.41421;stroke-dasharray:none" />
    <path
       d="m 26.436901,9.0117704 v 0 c -0.188462,-0.278924 -0.115236,-0.658001 0.163686,-0.8464622 v 0 c 0.278922,-0.1873839 0.658,-0.1141538 0.846461,0.1647699 v 0 c 1.54,2.3067679 2.361695,5.0152309 2.361695,7.7850769 0,3.713231 -1.473234,7.273539 -4.103078,9.896923 -2.623383,2.629846 -6.183687,4.103076 -9.896922,4.103076 -3.71323,0 -7.2735381,-1.47323 -9.8969232,-4.103076 C 3.2819736,23.388694 1.8087433,19.828386 1.8087433,16.115155 v 0 c 0,-3.713231 1.4732303,-7.2735396 4.1030765,-9.8969243 C 8.5352049,3.59377 12.095513,2.1151544 15.808743,2.1151544 c 2.081696,0 4.145078,0.4630767 6.026461,1.3633845 v 0 c 0.301539,0.1443081 0.429695,0.5072309 0.285383,0.8098466 v 0 C 21.976283,4.5910011 21.61336,4.7191543 21.311823,4.5737697 v 0 c -1.716619,-0.8152305 -3.597513,-1.241692 -5.502592,-1.241692 -3.390156,0 -6.6413859,1.3461541 -9.0386163,3.7444617 C 4.3723073,9.4737694 3.0256669,12.725 3.0256669,16.115155 v 0 c 0,3.390153 1.3461533,6.641384 3.7444608,9.038615 2.3972312,2.398308 5.6484623,3.744461 9.0386153,3.744461 3.390156,0 6.641383,-1.346153 9.038617,-3.744461 2.398305,-2.397231 3.744462,-5.648462 3.744462,-9.038615 0,-2.531847 -0.74954,-5.003385 -2.154921,-7.1033846 z M 12.50582,10.031616 c 0.05061,0.07 0.102306,0.133538 0.165846,0.190615 l 0.0064,0.0065 2.954,2.955078 c 0.248771,0.247691 0.248771,0.651537 0,0.89923 l -3.972769,3.97277 v 0 c -0.24877,0.249846 -0.652616,0.249846 -0.900308,0 v 0 c -0.247656,-0.248773 -0.245502,-0.653695 0.0033,-0.903543 v 0 l 3.519376,-3.51942 -2.500615,-2.500615 c -0.165845,-0.159385 -0.305844,-0.343538 -0.426461,-0.540616 -0.121692,-0.203537 -0.18523,-0.439384 -0.191692,-0.6741516 0,-0.395232 0.222923,-0.758154 0.566462,-0.94877 0.305846,-0.159385 0.649384,-0.235847 0.999384,-0.216462 h 0.07 l 7.750617,0.235847 h 0.0063 c 0.502922,0.01939 0.979999,0.222922 1.336461,0.579384 0.362923,0.350001 0.585845,0.8206156 0.617076,1.3235376 v 0.0065 l 0.477076,8.08123 0.0063,0.159385 c 0.01939,0.324154 -0.05061,0.65477 -0.209999,0.947693 -0.184155,0.331692 -0.534154,0.541692 -0.916463,0.547076 -0.23477,-0.0054 -0.470616,-0.07539 -0.667692,-0.197075 -0.197078,-0.114156 -0.382306,-0.260616 -0.540615,-0.426463 l -2.163521,-2.163542 -5.062615,5.05723 c -0.497538,0.496463 -1.304154,0.496463 -1.800616,0 L 9.406385,20.678078 v 0 C 9.1608467,20.428231 9.1619233,20.025463 9.4096191,19.77777 v 0 c 0.2476923,-0.247692 0.6515379,-0.249846 0.9013839,-0.0032 v 0 l 1.771539,1.775846 c 0.247692,0.248769 0.650459,0.249847 0.899231,0.001 l 5.062614,-5.056154 c 0.24769,-0.24877 0.651539,-0.24877 0.899229,0 l 2.617999,2.616924 c 0.0063,0.0065 0.0063,0.0065 0.01296,0.01292 0.04418,0.04415 0.09478,0.08939 0.14646,0.133538 v -0.05708 -0.01939 l -0.0063,-0.146432 -0.471693,-8.062922 c -0.01184,-0.190643 -0.101234,-0.361874 -0.234784,-0.495412 -0.133538,-0.134616 -0.312307,-0.21 -0.502925,-0.216461 L 12.77304,10.025142 h -0.07646 c -0.01184,0 -0.01831,0 -0.03122,-0.0065 -0.05061,0 -0.102308,0 -0.159383,0.01293 z"
       id="path152"
       inkscape:connector-curvature="0"
       style="isolation:isolate;fill:url(#_lgradient_14);fill-rule:evenodd;stroke-width:1.07692"
       sodipodi:nodetypes="ccccccscsccccsccccccsccccscscccccccccccccccccccccccccccccccccccccccccccccccccccccsccc" />
  </g>
</svg>
