<?xml version="1.0" encoding="UTF-8" standalone="no"?>
<svg
   xmlns:dc="http://purl.org/dc/elements/1.1/"
   xmlns:cc="http://creativecommons.org/ns#"
   xmlns:rdf="http://www.w3.org/1999/02/22-rdf-syntax-ns#"
   xmlns:svg="http://www.w3.org/2000/svg"
   xmlns="http://www.w3.org/2000/svg"
   xmlns:xlink="http://www.w3.org/1999/xlink"
   xmlns:sodipodi="http://sodipodi.sourceforge.net/DTD/sodipodi-0.dtd"
   xmlns:inkscape="http://www.inkscape.org/namespaces/inkscape"
   height="32"
   width="32"
   sodipodi:docname="magnify.svg"
   inkscape:version="1.0 (4035a4fb49, 2020-05-01)"
   viewBox="0 0 32 32"
   id="svg2"
   version="1.1">
  <sodipodi:namedview
     inkscape:document-rotation="0"
     inkscape:current-layer="nepomuk"
     inkscape:window-maximized="1"
     inkscape:window-y="36"
     inkscape:window-x="0"
     inkscape:cy="20.147121"
     inkscape:cx="1.6796884"
     inkscape:zoom="16"
     showgrid="false"
     id="namedview12"
     inkscape:window-height="2124"
     inkscape:window-width="3810"
     inkscape:pageshadow="2"
     inkscape:pageopacity="0"
     guidetolerance="10"
     gridtolerance="10"
     objecttolerance="10"
     borderopacity="1"
     bordercolor="#666666"
     pagecolor="#ffffff" />
  <metadata
     id="metadata18">
    <rdf:RDF>
      <cc:Work
         rdf:about="">
        <dc:format>image/svg+xml</dc:format>
        <dc:type
           rdf:resource="http://purl.org/dc/dcmitype/StillImage" />
        <dc:title></dc:title>
      </cc:Work>
    </rdf:RDF>
  </metadata>
  <defs
     id="defs3051">
    <linearGradient
       id="linearGradient850"
       inkscape:collect="always">
      <stop
         id="stop846"
         offset="0"
         style="stop-color:#024aff;stop-opacity:1" />
      <stop
         id="stop848"
         offset="1"
         style="stop-color:#01ff01;stop-opacity:1" />
    </linearGradient>
    <style
       id="current-color-scheme"
       type="text/css">
      .ColorScheme-Text {
        color:#31363b;
      }
      .ColorScheme-Background {
        color:#eff0f1;
      }
      .ColorScheme-Highlight {
        color:#3daee9;
      }
      .ColorScheme-ViewText {
        color:#31363b;
      }
      .ColorScheme-ViewBackground {
        color:#fcfcfc;
      }
      .ColorScheme-ViewHover {
        color:#93cee9;
      }
      .ColorScheme-ViewFocus{
        color:#3daee9;
      }
      .ColorScheme-ButtonText {
        color:#31363b;
      }
      .ColorScheme-ButtonBackground {
        color:#eff0f1;
      }
      .ColorScheme-ButtonHover {
        color:#93cee9;
      }
      .ColorScheme-ButtonFocus{
        color:#3daee9;
      }
      </style>
    <linearGradient
       gradientUnits="userSpaceOnUse"
       y2="4.6369667"
       x2="4.5259914"
       y1="27.67131"
       x1="27.63273"
       id="linearGradient852"
       xlink:href="#linearGradient850"
       inkscape:collect="always" />
  </defs>
  <g
     id="nepomuk"
     style="clip-rule:evenodd;fill-rule:evenodd;stroke-linejoin:round;stroke-miterlimit:1.41421">
    <path
       sodipodi:nodetypes="ccsccccscscccsssssssscccs"
       d="m 16.793125,17.500125 c -2.944,2.581 -7.433,2.467 -10.241,-0.342 -2.927,-2.927 -2.927,-7.679 0,-10.606 2.927,-2.927 7.679,-2.927 10.606,0 2.809,2.808 2.923,7.297 0.342,10.241 l 1.471,1.471 c 0.767,-0.453 1.772,-0.35 2.43,0.309 l 5.657,5.657 c 0.78,0.78 0.78,2.047 0,2.828 -0.781,0.78 -2.048,0.78 -2.828,0 l -5.657,-5.657 c -0.659,-0.658 -0.762,-1.663 -0.309,-2.43 z m 3.901,1.78 c -0.39,-0.39 -1.024,-0.39 -1.414,0 -0.39,0.39 -0.39,1.024 0,1.414 l 5.657,5.657 c 0.39,0.39 1.024,0.39 1.414,0 0.39,-0.39 0.39,-1.024 0,-1.414 z m -13.435,-12.021 c 2.537,-2.537 6.656,-2.537 9.192,0 2.537,2.537 2.537,6.656 0,9.192 -2.536,2.537 -6.655,2.537 -9.192,0 -2.537,-2.536 -2.537,-6.655 0,-9.192 z"
       style="fill:url(#linearGradient852);fill-opacity:1"
       id="path2"
       inkscape:connector-curvature="0" />
    <rect
       style="fill:#ffffff;fill-opacity:0;stroke-width:0.858097"
       id="rect4506"
       width="32"
       height="32"
       x="0"
       y="0" />
  </g>
</svg>
