<?xml version="1.0" encoding="UTF-8" standalone="no"?>
<svg
   xmlns:dc="http://purl.org/dc/elements/1.1/"
   xmlns:cc="http://creativecommons.org/ns#"
   xmlns:rdf="http://www.w3.org/1999/02/22-rdf-syntax-ns#"
   xmlns:svg="http://www.w3.org/2000/svg"
   xmlns="http://www.w3.org/2000/svg"
   xmlns:xlink="http://www.w3.org/1999/xlink"
   xmlns:sodipodi="http://sodipodi.sourceforge.net/DTD/sodipodi-0.dtd"
   xmlns:inkscape="http://www.inkscape.org/namespaces/inkscape"
   inkscape:version="1.0 (4035a4fb49, 2020-05-01)"
   sodipodi:docname="memory.svg"
   id="svg4"
   viewBox="0 0 240 240"
   height="240"
   width="240"
   version="1.1">
  <metadata
     id="metadata10">
    <rdf:RDF>
      <cc:Work
         rdf:about="">
        <dc:format>image/svg+xml</dc:format>
        <dc:type
           rdf:resource="http://purl.org/dc/dcmitype/StillImage" />
        <dc:title />
      </cc:Work>
    </rdf:RDF>
  </metadata>
  <defs
     id="defs8">
    <linearGradient
       id="linearGradient834"
       inkscape:collect="always">
      <stop
         id="stop830"
         offset="0"
         style="stop-color:#00ffff;stop-opacity:1" />
      <stop
         id="stop832"
         offset="1"
         style="stop-color:#ff0000;stop-opacity:1" />
    </linearGradient>
    <linearGradient
       gradientUnits="userSpaceOnUse"
       y2="64.690445"
       x2="198.00485"
       y1="175.55556"
       x1="42.222221"
       id="linearGradient836"
       xlink:href="#linearGradient834"
       inkscape:collect="always" />
  </defs>
  <sodipodi:namedview
     inkscape:document-rotation="0"
     inkscape:current-layer="svg4"
     inkscape:window-maximized="0"
     inkscape:window-y="40"
     inkscape:window-x="1922"
     inkscape:cy="126.60933"
     inkscape:cx="162.54218"
     inkscape:zoom="2.7812867"
     inkscape:pagecheckerboard="true"
     showgrid="false"
     id="namedview6"
     inkscape:window-height="2116"
     inkscape:window-width="1884"
     inkscape:pageshadow="2"
     inkscape:pageopacity="0"
     guidetolerance="10"
     gridtolerance="10"
     objecttolerance="10"
     borderopacity="1"
     bordercolor="#666666"
     pagecolor="#ffffff" />
  <path
     style="fill:url(#linearGradient836);stroke-width:11.11111164;fill-opacity:1"
     inkscape:connector-curvature="0"
     id="path2"
     d="M 175.55556,175.55556 H 64.444444 V 64.44444 H 175.55556 M 220,108.88889 V 86.66667 H 197.77778 V 64.44444 c 0,-12.33333 -10,-22.22222 -22.22222,-22.22222 H 153.33333 V 20 H 131.11111 V 42.22222 H 108.88889 V 20 H 86.666667 V 42.22222 H 64.444444 c -12.333333,0 -22.222222,9.88889 -22.222222,22.22222 V 86.66667 H 20 v 22.22222 h 22.222222 v 22.22222 H 20 v 22.22222 h 22.222222 v 22.22223 a 22.222222,22.222222 0 0 0 22.222222,22.22222 H 86.666667 V 220 h 22.222223 v -22.22222 h 22.22222 V 220 h 22.22222 v -22.22222 h 22.22223 a 22.222222,22.222222 0 0 0 22.22222,-22.22222 V 153.33333 H 220 v -22.22222 h -22.22222 v -22.22222 m -66.66667,22.22222 h -22.22222 v -22.22222 h 22.22222 M 153.33333,86.66667 H 86.666667 v 66.66666 h 66.666663 z" />
</svg>
