<?xml version="1.0" encoding="UTF-8" standalone="no"?>
<svg
   xmlns:dc="http://purl.org/dc/elements/1.1/"
   xmlns:cc="http://creativecommons.org/ns#"
   xmlns:rdf="http://www.w3.org/1999/02/22-rdf-syntax-ns#"
   xmlns:svg="http://www.w3.org/2000/svg"
   xmlns="http://www.w3.org/2000/svg"
   xmlns:sodipodi="http://sodipodi.sourceforge.net/DTD/sodipodi-0.dtd"
   xmlns:inkscape="http://www.inkscape.org/namespaces/inkscape"
   height="28"
   width="28"
   inkscape:version="1.0 (4035a4fb49, 2020-05-01)"
   sodipodi:docname="power.svg"
   viewBox="0 0 28 28"
   id="svg2"
   version="1.1">
  <sodipodi:namedview
     inkscape:document-rotation="0"
     showguides="false"
     inkscape:showpageshadow="false"
     inkscape:current-layer="system-shutdown"
     inkscape:window-maximized="0"
     inkscape:window-y="1082"
     inkscape:window-x="1922"
     inkscape:cy="3.5137609"
     inkscape:cx="-12.460727"
     inkscape:zoom="4.977019"
     showgrid="false"
     id="namedview66"
     inkscape:window-height="1074"
     inkscape:window-width="1884"
     inkscape:pageshadow="2"
     inkscape:pageopacity="0"
     guidetolerance="10"
     gridtolerance="10"
     objecttolerance="10"
     borderopacity="1"
     bordercolor="#666666"
     pagecolor="#ffffff" />
  <metadata
     id="metadata62">
    <rdf:RDF>
      <cc:Work
         rdf:about="">
        <dc:format>image/svg+xml</dc:format>
        <dc:type
           rdf:resource="http://purl.org/dc/dcmitype/StillImage" />
        <dc:title></dc:title>
      </cc:Work>
    </rdf:RDF>
  </metadata>
  <defs
     id="defs3051">
    <style
       id="current-color-scheme"
       type="text/css">
      .ColorScheme-Text {
        color:#C3C7D1;
      }
      .ColorScheme-Background {
        color:#ffffff;
      }
      .ColorScheme-Highlight {
        color:#009bff;
      }
      .ColorScheme-ViewText {
        color:#C3C7D1;
      }
      .ColorScheme-ViewBackground {
        color:#ffffff;
      }
      .ColorScheme-ViewHover {
        color:#2dacff;
      }
      .ColorScheme-ViewFocus{
        color:#009bff;
      }
      .ColorScheme-ButtonText {
        color:#C3C7D1;
      }
      .ColorScheme-ButtonBackground {
        color:#ffffff;
      }
      .ColorScheme-ButtonHover {
        color:#2dacff;
      }
      .ColorScheme-ButtonFocus{
        color:#009bff;
      }
      </style>
    <linearGradient
       y2="81.676857"
       x2="98.057564"
       y1="81.676857"
       x1="84.740021"
       id="_lgradient_30"
       gradientTransform="matrix(1.1807231,0,0,1.152802,-92.120519,-77.655116)"
       gradientUnits="userSpaceOnUse">
      <stop
         id="stop9"
         style="stop-color:rgb(88,0,226)"
         stop-opacity="1"
         offset="0%" />
      <stop
         id="stop11"
         style="stop-color:rgb(255,0,230)"
         stop-opacity="1"
         offset="100%" />
    </linearGradient>
    <linearGradient
       gradientUnits="userSpaceOnUse"
       gradientTransform="matrix(28,0,0,28.000594,1.7961501,2.1127368)"
       y2="0.5"
       x2="1"
       y1="0.5"
       x1="0"
       id="_lgradient_31">
      <stop
         id="stop16"
         style="stop-color:rgb(88,0,226)"
         stop-opacity="1"
         offset="0%" />
      <stop
         id="stop18"
         style="stop-color:rgb(255,0,230)"
         stop-opacity="1"
         offset="100%" />
    </linearGradient>
    <linearGradient
       y2="85.542641"
       x2="69.545692"
       y1="85.542641"
       x1="60.00079"
       id="_lgradient_47"
       gradientTransform="matrix(1.3482934,0,0,1.3185393,-76.665046,-102.14916)"
       gradientUnits="userSpaceOnUse">
      <stop
         id="stop27"
         style="stop-color:rgb(88,0,226)"
         stop-opacity="1"
         offset="0%" />
      <stop
         id="stop29"
         style="stop-color:rgb(255,0,230)"
         stop-opacity="1"
         offset="100%" />
    </linearGradient>
    <linearGradient
       gradientUnits="userSpaceOnUse"
       gradientTransform="matrix(21.333334,0,0,21.333334,0.0016241,-0.3211577)"
       y2="0.5"
       x2="1"
       y1="0.5"
       x1="0"
       id="_lgradient_48">
      <stop
         id="stop34"
         style="stop-color:rgb(88,0,226)"
         stop-opacity="1"
         offset="0%" />
      <stop
         id="stop36"
         style="stop-color:rgb(255,0,230)"
         stop-opacity="1"
         offset="100%" />
    </linearGradient>
    <linearGradient
       gradientUnits="userSpaceOnUse"
       gradientTransform="matrix(18.261382,0,0,18.261384,6.8360137,6.8565346)"
       y2="0.5"
       x2="1"
       y1="0.5"
       x1="0"
       id="_lgradient_55">
      <stop
         id="stop107"
         style="stop-color:rgb(255,153,102)"
         stop-opacity="1"
         offset="0%" />
      <stop
         id="stop109"
         style="stop-color:rgb(255,94,98)"
         stop-opacity="1"
         offset="98.26086956521739%" />
    </linearGradient>
    <linearGradient
       y2="79.5"
       x2="46.228001"
       y1="79.5"
       x1="28.771999"
       id="_lgradient_56"
       gradientUnits="userSpaceOnUse"
       gradientTransform="matrix(1.0769229,0,0,1.0769232,-24.418443,-69.628697)">
      <stop
         id="stop112"
         style="stop-color:rgb(255,153,102)"
         stop-opacity="1"
         offset="0%" />
      <stop
         id="stop114"
         style="stop-color:rgb(255,94,98)"
         stop-opacity="1"
         offset="98.26086956521739%" />
    </linearGradient>
    <linearGradient
       gradientUnits="userSpaceOnUse"
       gradientTransform="matrix(27.999997,0,0,28,1.966163,1.9866881)"
       y2="0.5"
       x2="1"
       y1="0.5"
       x1="0"
       id="_lgradient_57">
      <stop
         id="stop119"
         style="stop-color:rgb(255,153,102)"
         stop-opacity="1"
         offset="0%" />
      <stop
         id="stop121"
         style="stop-color:rgb(255,94,98)"
         stop-opacity="1"
         offset="98.26086956521739%" />
    </linearGradient>
    <linearGradient
       gradientUnits="userSpaceOnUse"
       gradientTransform="matrix(14.609885,0,0,14.128909,3.3597622,4.0727295)"
       y2="0.5"
       x2="1"
       y1="0.5"
       x1="0"
       id="_lgradient_58">
      <stop
         id="stop130"
         style="stop-color:rgb(255,153,102)"
         stop-opacity="1"
         offset="0%" />
      <stop
         id="stop132"
         style="stop-color:rgb(255,94,98)"
         stop-opacity="1"
         offset="98.26086956521739%" />
    </linearGradient>
    <linearGradient
       y2="85.5"
       x2="17.620001"
       y1="85.5"
       x1="5.3800001"
       id="_lgradient_59"
       gradientUnits="userSpaceOnUse"
       gradientTransform="matrix(1.2445596,0,0,1.2035871,-3.6471084,-91.768907)">
      <stop
         id="stop135"
         style="stop-color:rgb(255,153,102)"
         stop-opacity="1"
         offset="0%" />
      <stop
         id="stop137"
         style="stop-color:rgb(255,94,98)"
         stop-opacity="1"
         offset="98.26086956521739%" />
    </linearGradient>
    <linearGradient
       gradientUnits="userSpaceOnUse"
       gradientTransform="matrix(22.402073,0,0,21.664567,-0.5357089,0.30550149)"
       y2="0.5"
       x2="1"
       y1="0.5"
       x1="0"
       id="_lgradient_60">
      <stop
         id="stop142"
         style="stop-color:rgb(255,153,102)"
         stop-opacity="1"
         offset="0%" />
      <stop
         id="stop144"
         style="stop-color:rgb(255,94,98)"
         stop-opacity="1"
         offset="98.26086956521739%" />
    </linearGradient>
    <linearGradient
       gradientUnits="userSpaceOnUse"
       gradientTransform="matrix(28.000003,0,0,28.000001,1.8087433,2.1151544)"
       y2="0.5"
       x2="1"
       y1="0.5"
       x1="0"
       id="_lgradient_14">
      <stop
         id="stop147"
         style="stop-color:rgb(0,255,169)"
         stop-opacity="1"
         offset="0%" />
      <stop
         id="stop149"
         style="stop-color:rgb(240,116,179)"
         stop-opacity="1"
         offset="100%" />
    </linearGradient>
    <linearGradient
       gradientUnits="userSpaceOnUse"
       gradientTransform="matrix(-21.951523,0,0,21.61011,21.87215,0.163323)"
       y2="0.5"
       x2="1"
       y1="0.5"
       x1="0"
       id="_lgradient_15">
      <stop
         id="stop158"
         style="stop-color:rgb(0,255,169)"
         stop-opacity="1"
         offset="0%" />
      <stop
         id="stop160"
         style="stop-color:rgb(240,116,179)"
         stop-opacity="1"
         offset="100%" />
    </linearGradient>
    <linearGradient
       gradientUnits="userSpaceOnUse"
       gradientTransform="matrix(28,0,0,28,1.8201499,1.7452183)"
       y2="0.5"
       x2="1"
       y1="0.5"
       x1="0"
       id="_lgradient_12">
      <stop
         id="stop125"
         style="stop-color:rgb(255,224,49)"
         stop-opacity="1"
         offset="0%" />
      <stop
         id="stop127"
         style="stop-color:rgb(250,0,117)"
         stop-opacity="1"
         offset="100%" />
    </linearGradient>
    <linearGradient
       gradientUnits="userSpaceOnUse"
       gradientTransform="matrix(21.907734,0,0,21.344431,0.281331,0.622092)"
       y2="0.5"
       x2="1"
       y1="0.5"
       x1="0"
       id="_lgradient_13">
      <stop
         id="stop136"
         style="stop-color:rgb(255,224,49)"
         stop-opacity="1"
         offset="0%" />
      <stop
         id="stop138"
         style="stop-color:rgb(250,0,117)"
         stop-opacity="1"
         offset="100%" />
    </linearGradient>
    <linearGradient
       gradientUnits="userSpaceOnUse"
       gradientTransform="matrix(28,0,0,28,1.989041,2.0344726)"
       y2="0.5"
       x2="1"
       y1="0.5"
       x1="0"
       id="_lgradient_4">
      <stop
         id="stop57"
         style="stop-color:rgb(67,233,123)"
         stop-opacity="1"
         offset="0%" />
      <stop
         id="stop59"
         style="stop-color:rgb(56,249,215)"
         stop-opacity="1"
         offset="97.82608695652173%" />
    </linearGradient>
    <linearGradient
       gradientUnits="userSpaceOnUse"
       gradientTransform="matrix(21.528625,0,0,21.414821,0.34500001,0.301332)"
       y2="0.5"
       x2="1"
       y1="0.5"
       x1="0"
       id="_lgradient_5">
      <stop
         id="stop68"
         style="stop-color:rgb(67,233,123)"
         stop-opacity="1"
         offset="0%" />
      <stop
         id="stop70"
         style="stop-color:rgb(56,249,215)"
         stop-opacity="1"
         offset="97.82608695652173%" />
    </linearGradient>
  </defs>
  <g
     transform="translate(-1.8201499,-1.7452183)"
     id="system-shutdown"
     style="clip-rule:evenodd;fill-rule:evenodd;stroke-linejoin:round;stroke-miterlimit:1.41421">
    <rect
       style="fill:#ffffd9;fill-opacity:0;stroke-width:1.51399;stroke-miterlimit:1.41421;stroke-dasharray:none"
       id="rect817-75"
       width="32"
       height="32"
       x="0"
       y="0"
       ry="1.1469223" />
    <path
       style="isolation:isolate;fill:url(#_lgradient_12);fill-rule:evenodd;stroke-width:1.07692"
       inkscape:connector-curvature="0"
       id="path130"
       d="m 26.448305,8.6418333 v 0 C 26.259843,8.3629113 26.333073,7.9838334 26.611997,7.7953722 v 0 c 0.278923,-0.1873846 0.657999,-0.1141536 0.846461,0.1647692 v 0 c 1.54,2.3067686 2.361692,5.0152306 2.361692,7.7850766 0,3.713231 -1.473231,7.273539 -4.103077,9.896923 -2.623384,2.629846 -6.183692,4.103077 -9.896923,4.103077 -3.713231,0 -7.2735388,-1.473231 -9.8969233,-4.103077 C 3.2933806,23.018757 1.8201499,19.458449 1.8201499,15.745218 v 0 c 0,-3.71323 1.4732307,-7.2735387 4.1030768,-9.8969229 2.6233845,-2.6244612 6.1836923,-4.1030768 9.8969233,-4.1030768 2.081693,0 4.145076,0.4630766 6.026462,1.3633846 v 0 c 0.301538,0.1443079 0.429693,0.5072307 0.285384,0.8098464 v 0 c -0.144307,0.3026156 -0.507231,0.4307689 -0.808769,0.2853843 v 0 c -1.716616,-0.8152305 -3.598,-1.241692 -5.503077,-1.241692 -3.390154,0 -6.6413847,1.3461533 -9.0386154,3.7444614 -2.3983073,2.3972303 -3.7444614,5.648462 -3.7444614,9.038615 v 0 c 0,3.390154 1.3461541,6.641385 3.7444614,9.038616 2.3972307,2.398307 5.6484614,3.744462 9.0386154,3.744462 3.390154,0 6.641385,-1.346155 9.038615,-3.744462 2.398309,-2.397231 3.744462,-5.648462 3.744462,-9.038616 0,-2.531847 -0.749538,-5.003385 -2.154922,-7.1033847 z M 15.94615,6.863834 v 0 c 0.351077,0 0.636461,0.2853844 0.636461,0.6364615 v 8.8372305 c 0,0.351076 -0.285384,0.636462 -0.636461,0.636462 v 0 c -0.351076,0 -0.636461,-0.285386 -0.636461,-0.636462 V 7.5002955 c 0,-0.3510771 0.285385,-0.6364615 0.636461,-0.6364615 z m 2.737539,4.181691 v 0 c -0.312308,-0.158307 -0.438308,-0.539538 -0.28,-0.852922 v 0 c 0.158307,-0.3123077 0.540615,-0.4383077 0.852922,-0.2799997 v 0 c 1.260001,0.6364617 2.322924,1.6099997 3.060616,2.8129217 0.745231,1.202924 1.139385,2.583539 1.139385,3.996462 0,0.350001 -0.02585,0.693539 -0.07,1.037077 -0.248769,1.826462 -1.152308,3.506461 -2.539384,4.722308 -1.39354,1.214769 -3.17477,1.883539 -5.020617,1.890001 -0.343538,0 -0.693539,-0.02585 -1.030614,-0.07 -1.832928,-0.248772 -3.512928,-1.152311 -4.728775,-2.539388 -1.2147694,-1.393539 -1.8835386,-3.175846 -1.8835386,-5.020615 0,-0.35 0.019384,-0.693539 0.070003,-1.037077 0.3564612,-2.654615 2.0870766,-4.925846 4.5435396,-5.9887697 v 0 c 0.323076,-0.136769 0.697846,0.01292 0.836767,0.3338467 v 0 c 0.138924,0.322 -0.0075,0.696769 -0.327384,0.836768 v 0 c -2.049383,0.885231 -3.4935378,2.781693 -3.7929227,4.989386 -0.037695,0.286461 -0.057079,0.572923 -0.057079,0.865846 0,1.533538 0.5600007,3.022923 1.5712317,4.180615 1.012307,1.157692 2.412307,1.909385 3.932922,2.112923 0.286463,0.03769 0.579386,0.06354 0.865846,0.06354 1.540001,-0.0064 3.022923,-0.56 4.180616,-1.578769 1.15877,-1.011231 1.909385,-2.411231 2.119385,-3.931846 0.0377,-0.286462 0.05708,-0.572924 0.05708,-0.865847 0,-2.392922 -1.36123,-4.594154 -3.499999,-5.676461 z" />
  </g>
</svg>
