<?xml version="1.0" encoding="UTF-8" standalone="no"?>
<svg
   xmlns:dc="http://purl.org/dc/elements/1.1/"
   xmlns:cc="http://creativecommons.org/ns#"
   xmlns:rdf="http://www.w3.org/1999/02/22-rdf-syntax-ns#"
   xmlns:svg="http://www.w3.org/2000/svg"
   xmlns="http://www.w3.org/2000/svg"
   xmlns:sodipodi="http://sodipodi.sourceforge.net/DTD/sodipodi-0.dtd"
   xmlns:inkscape="http://www.inkscape.org/namespaces/inkscape"
   height="32"
   width="32"
   inkscape:version="1.0 (4035a4fb49, 2020-05-01)"
   sodipodi:docname="restart.svg"
   viewBox="0 0 32 32"
   id="svg2"
   version="1.1">
  <sodipodi:namedview
     fit-margin-bottom="0"
     fit-margin-right="0"
     fit-margin-left="0"
     fit-margin-top="0"
     inkscape:document-rotation="0"
     showguides="false"
     inkscape:showpageshadow="false"
     inkscape:current-layer="svg2"
     inkscape:window-maximized="0"
     inkscape:window-y="1082"
     inkscape:window-x="1922"
     inkscape:cy="5.1112218"
     inkscape:cx="11.359423"
     inkscape:zoom="4.977019"
     showgrid="false"
     id="namedview66"
     inkscape:window-height="1074"
     inkscape:window-width="1884"
     inkscape:pageshadow="2"
     inkscape:pageopacity="0"
     guidetolerance="10"
     gridtolerance="10"
     objecttolerance="10"
     borderopacity="1"
     bordercolor="#666666"
     pagecolor="#fafafa" />
  <metadata
     id="metadata62">
    <rdf:RDF>
      <cc:Work
         rdf:about="">
        <dc:format>image/svg+xml</dc:format>
        <dc:type
           rdf:resource="http://purl.org/dc/dcmitype/StillImage" />
        <dc:title></dc:title>
      </cc:Work>
    </rdf:RDF>
  </metadata>
  <defs
     id="defs3051">
    <style
       id="current-color-scheme"
       type="text/css">
      .ColorScheme-Text {
        color:#C3C7D1;
      }
      .ColorScheme-Background {
        color:#fafafa;
      }
      .ColorScheme-Highlight {
        color:#009bff;
      }
      .ColorScheme-ViewText {
        color:#C3C7D1;
      }
      .ColorScheme-ViewBackground {
        color:#fafafa;
      }
      .ColorScheme-ViewHover {
        color:#2dacff;
      }
      .ColorScheme-ViewFocus{
        color:#009bff;
      }
      .ColorScheme-ButtonText {
        color:#C3C7D1;
      }
      .ColorScheme-ButtonBackground {
        color:#fafafa;
      }
      .ColorScheme-ButtonHover {
        color:#2dacff;
      }
      .ColorScheme-ButtonFocus{
        color:#009bff;
      }
      </style>
    <linearGradient
       y2="81.676857"
       x2="98.057564"
       y1="81.676857"
       x1="84.740021"
       id="_lgradient_30"
       gradientTransform="matrix(1.1807231,0,0,1.152802,-92.120519,-77.655116)"
       gradientUnits="userSpaceOnUse">
      <stop
         id="stop9"
         style="stop-color:rgb(88,0,226)"
         stop-opacity="1"
         offset="0%" />
      <stop
         id="stop11"
         style="stop-color:rgb(255,0,230)"
         stop-opacity="1"
         offset="100%" />
    </linearGradient>
    <linearGradient
       gradientUnits="userSpaceOnUse"
       gradientTransform="matrix(28,0,0,28.000594,1.7961501,2.1127368)"
       y2="0.5"
       x2="1"
       y1="0.5"
       x1="0"
       id="_lgradient_31">
      <stop
         id="stop16"
         style="stop-color:rgb(88,0,226)"
         stop-opacity="1"
         offset="0%" />
      <stop
         id="stop18"
         style="stop-color:rgb(255,0,230)"
         stop-opacity="1"
         offset="100%" />
    </linearGradient>
    <linearGradient
       y2="85.542641"
       x2="69.545692"
       y1="85.542641"
       x1="60.00079"
       id="_lgradient_47"
       gradientTransform="matrix(1.3482934,0,0,1.3185393,-76.665046,-102.14916)"
       gradientUnits="userSpaceOnUse">
      <stop
         id="stop27"
         style="stop-color:rgb(88,0,226)"
         stop-opacity="1"
         offset="0%" />
      <stop
         id="stop29"
         style="stop-color:rgb(255,0,230)"
         stop-opacity="1"
         offset="100%" />
    </linearGradient>
    <linearGradient
       gradientUnits="userSpaceOnUse"
       gradientTransform="matrix(21.333334,0,0,21.333334,0.0016241,-0.3211577)"
       y2="0.5"
       x2="1"
       y1="0.5"
       x1="0"
       id="_lgradient_48">
      <stop
         id="stop34"
         style="stop-color:rgb(88,0,226)"
         stop-opacity="1"
         offset="0%" />
      <stop
         id="stop36"
         style="stop-color:rgb(255,0,230)"
         stop-opacity="1"
         offset="100%" />
    </linearGradient>
    <linearGradient
       gradientUnits="userSpaceOnUse"
       gradientTransform="matrix(18.261382,0,0,18.261384,6.8360137,6.8565346)"
       y2="0.5"
       x2="1"
       y1="0.5"
       x1="0"
       id="_lgradient_55">
      <stop
         id="stop107"
         style="stop-color:rgb(255,153,102)"
         stop-opacity="1"
         offset="0%" />
      <stop
         id="stop109"
         style="stop-color:rgb(255,94,98)"
         stop-opacity="1"
         offset="98.26086956521739%" />
    </linearGradient>
    <linearGradient
       y2="79.5"
       x2="46.228001"
       y1="79.5"
       x1="28.771999"
       id="_lgradient_56"
       gradientUnits="userSpaceOnUse"
       gradientTransform="matrix(1.0769229,0,0,1.0769232,-24.418443,-69.628697)">
      <stop
         id="stop112"
         style="stop-color:rgb(255,153,102)"
         stop-opacity="1"
         offset="0%" />
      <stop
         id="stop114"
         style="stop-color:rgb(255,94,98)"
         stop-opacity="1"
         offset="98.26086956521739%" />
    </linearGradient>
    <linearGradient
       gradientUnits="userSpaceOnUse"
       gradientTransform="matrix(27.999997,0,0,28,1.966163,1.9866881)"
       y2="0.5"
       x2="1"
       y1="0.5"
       x1="0"
       id="_lgradient_57">
      <stop
         id="stop119"
         style="stop-color:rgb(255,153,102)"
         stop-opacity="1"
         offset="0%" />
      <stop
         id="stop121"
         style="stop-color:rgb(255,94,98)"
         stop-opacity="1"
         offset="98.26086956521739%" />
    </linearGradient>
    <linearGradient
       gradientUnits="userSpaceOnUse"
       gradientTransform="matrix(14.609885,0,0,14.128909,3.3597622,4.0727295)"
       y2="0.5"
       x2="1"
       y1="0.5"
       x1="0"
       id="_lgradient_58">
      <stop
         id="stop130"
         style="stop-color:rgb(255,153,102)"
         stop-opacity="1"
         offset="0%" />
      <stop
         id="stop132"
         style="stop-color:rgb(255,94,98)"
         stop-opacity="1"
         offset="98.26086956521739%" />
    </linearGradient>
    <linearGradient
       y2="85.5"
       x2="17.620001"
       y1="85.5"
       x1="5.3800001"
       id="_lgradient_59"
       gradientUnits="userSpaceOnUse"
       gradientTransform="matrix(1.2445596,0,0,1.2035871,-3.6471084,-91.768907)">
      <stop
         id="stop135"
         style="stop-color:rgb(255,153,102)"
         stop-opacity="1"
         offset="0%" />
      <stop
         id="stop137"
         style="stop-color:rgb(255,94,98)"
         stop-opacity="1"
         offset="98.26086956521739%" />
    </linearGradient>
    <linearGradient
       gradientUnits="userSpaceOnUse"
       gradientTransform="matrix(22.402073,0,0,21.664567,-0.5357089,0.30550149)"
       y2="0.5"
       x2="1"
       y1="0.5"
       x1="0"
       id="_lgradient_60">
      <stop
         id="stop142"
         style="stop-color:rgb(255,153,102)"
         stop-opacity="1"
         offset="0%" />
      <stop
         id="stop144"
         style="stop-color:rgb(255,94,98)"
         stop-opacity="1"
         offset="98.26086956521739%" />
    </linearGradient>
    <linearGradient
       gradientUnits="userSpaceOnUse"
       gradientTransform="matrix(28.000003,0,0,28.000001,1.8087433,2.1151544)"
       y2="0.5"
       x2="1"
       y1="0.5"
       x1="0"
       id="_lgradient_14">
      <stop
         id="stop147"
         style="stop-color:rgb(0,255,169)"
         stop-opacity="1"
         offset="0%" />
      <stop
         id="stop149"
         style="stop-color:rgb(240,116,179)"
         stop-opacity="1"
         offset="100%" />
    </linearGradient>
    <linearGradient
       gradientUnits="userSpaceOnUse"
       gradientTransform="matrix(-21.951523,0,0,21.61011,21.87215,0.163323)"
       y2="0.5"
       x2="1"
       y1="0.5"
       x1="0"
       id="_lgradient_15">
      <stop
         id="stop158"
         style="stop-color:rgb(0,255,169)"
         stop-opacity="1"
         offset="0%" />
      <stop
         id="stop160"
         style="stop-color:rgb(240,116,179)"
         stop-opacity="1"
         offset="100%" />
    </linearGradient>
    <linearGradient
       gradientUnits="userSpaceOnUse"
       gradientTransform="matrix(28,0,0,28,1.8201499,1.7452183)"
       y2="0.5"
       x2="1"
       y1="0.5"
       x1="0"
       id="_lgradient_12">
      <stop
         id="stop125"
         style="stop-color:rgb(255,224,49)"
         stop-opacity="1"
         offset="0%" />
      <stop
         id="stop127"
         style="stop-color:rgb(250,0,117)"
         stop-opacity="1"
         offset="100%" />
    </linearGradient>
    <linearGradient
       gradientUnits="userSpaceOnUse"
       gradientTransform="matrix(21.907734,0,0,21.344431,0.281331,0.622092)"
       y2="0.5"
       x2="1"
       y1="0.5"
       x1="0"
       id="_lgradient_13">
      <stop
         id="stop136"
         style="stop-color:rgb(255,224,49)"
         stop-opacity="1"
         offset="0%" />
      <stop
         id="stop138"
         style="stop-color:rgb(250,0,117)"
         stop-opacity="1"
         offset="100%" />
    </linearGradient>
    <linearGradient
       gradientUnits="userSpaceOnUse"
       gradientTransform="matrix(28,0,0,28,1.989041,2.0344726)"
       y2="0.5"
       x2="1"
       y1="0.5"
       x1="0"
       id="_lgradient_4">
      <stop
         id="stop57"
         style="stop-color:rgb(67,233,123)"
         stop-opacity="1"
         offset="0%" />
      <stop
         id="stop59"
         style="stop-color:rgb(56,249,215)"
         stop-opacity="1"
         offset="97.82608695652173%" />
    </linearGradient>
    <linearGradient
       gradientUnits="userSpaceOnUse"
       gradientTransform="matrix(21.528625,0,0,21.414821,0.34500001,0.301332)"
       y2="0.5"
       x2="1"
       y1="0.5"
       x1="0"
       id="_lgradient_5">
      <stop
         id="stop68"
         style="stop-color:rgb(67,233,123)"
         stop-opacity="1"
         offset="0%" />
      <stop
         id="stop70"
         style="stop-color:rgb(56,249,215)"
         stop-opacity="1"
         offset="97.82608695652173%" />
    </linearGradient>
  </defs>
  <g
     id="system-reboot"
     style="clip-rule:evenodd;fill-rule:evenodd;stroke-linejoin:round;stroke-miterlimit:1.41421">
    <rect
       style="fill:#ffdfff;fill-opacity:0;stroke-width:0.797917"
       id="rect817"
       width="32"
       height="32"
       x="0"
       y="0" />
    <path
       style="isolation:isolate;vector-effect:non-scaling-stroke;fill:none;stroke:url(#_lgradient_30);stroke-width:2.33336;stroke-linecap:square;stroke-linejoin:miter;stroke-miterlimit:3"
       inkscape:connector-curvature="0"
       id="path14"
       stroke-miterlimit="3"
       d="m 9.1006504,16.502709 c 0,-3.59341 2.9995006,-6.5101394 6.6955006,-6.5101394 3.696,0 6.6955,2.9167294 6.6955,6.5101394 0,3.592242 -2.9995,6.508971 -6.6955,6.508971 -3.696,0 -6.6955006,-2.916729 -6.6955006,-6.508971 z" />
    <path
       style="isolation:isolate;fill:url(#_lgradient_31);fill-rule:evenodd;stroke-width:1.16668"
       inkscape:connector-curvature="0"
       id="path21"
       d="m 9.753984,5.5486422 v 0 c 1.856167,-0.9683541 3.931667,-1.4746975 6.042167,-1.4746975 2.245833,0 4.4555,0.5751785 6.403833,1.6695352 v 0 c 0.288167,0.1633371 0.659167,0.066501 0.827167,-0.2158381 v 0 c 0.168,-0.2823388 0.07,-0.6451801 -0.219333,-0.8085171 v 0 C 20.677484,3.5185993 18.255484,2.8909196 15.796151,2.8909196 c -2.408,0 -4.774,0.6055128 -6.8716669,1.7535371 L 9.2243177,2.917753 v 0 c 0.065336,-0.3756744 -0.196,-0.7315155 -0.5821672,-0.7945168 v 0 c -0.3861664,-0.064165 -0.7525,0.1901712 -0.8178327,0.5658456 v 0 L 7.4019842,5.1449673 c -0.1306664,0.759516 0.3803336,1.4781976 1.1421663,1.6042003 l 2.5655005,0.4211761 v 0 c 0.386167,0.063001 0.7525,-0.1901712 0.817833,-0.5658456 v 0 C 11.99282,6.2288238 11.732651,5.8718163 11.345318,5.808815 v 0 z M 4.7548171,22.763175 v 0 c 0.1680009,0.281172 0.068836,0.642846 -0.2193327,0.808517 v 0 c -0.2893337,0.164503 -0.6626664,0.07 -0.8341672,-0.210005 v 0 C 2.4529845,21.277976 1.7961509,18.91076 1.7961509,16.502709 c 0,-2.166547 0.5296664,-4.296925 1.5458335,-6.226633 v 0 c 0.1551664,-0.2905064 0.5226664,-0.4036754 0.8225,-0.254338 v 0 c 0.2986663,0.150503 0.4153327,0.508677 0.2613336,0.799183 v 0 c -0.9310008,1.758204 -1.4128336,3.704245 -1.4128336,5.681788 0,2.201546 0.5973328,4.361092 1.7418327,6.260466 z m 17.4813339,4.474261 v 0 c 0.289333,-0.163337 0.6615,-0.06767 0.830667,0.213504 v 0 c 0.170333,0.280006 0.0735,0.644014 -0.215834,0.810851 v 0 c -2.143167,1.212192 -4.578,1.851539 -7.054833,1.851539 -2.391667,0 -4.754167,-0.597346 -6.8413333,-1.733703 v 0 C 8.6619841,28.21979 8.5581505,27.859282 8.7226505,27.57461 v 0 c 0.1645,-0.283506 0.5354999,-0.387342 0.8283335,-0.231005 v 0 c 1.905167,1.041855 4.06,1.5867 6.245167,1.5867 2.2645,0 4.485833,-0.579846 6.44,-1.692869 z m 5.083167,-16.114342 v 0 c -0.144668,-0.294006 -0.01634,-0.646347 0.285832,-0.787517 v 0 c 0.302167,-0.140003 0.667334,-0.01516 0.815501,0.27884 v 0 c 0.9065,1.834039 1.3755,3.846581 1.3755,5.888292 0,2.319381 -0.609,4.59793 -1.771001,6.627973 v 0 c -0.1645,0.283506 -0.5355,0.386175 -0.828332,0.227505 v 0 c -0.291668,-0.15867 -0.399,-0.520344 -0.236834,-0.80735 v 0 c 1.065166,-1.846873 1.619333,-3.929417 1.619333,-6.048128 0,-1.864373 -0.427,-3.699579 -1.259999,-5.379615 z M 25.230984,7.9216926 c 0,-0.326674 0.273,-0.5926791 0.609,-0.5926791 0.336,0 0.607834,0.2660051 0.607834,0.5926791 0,0.326674 -0.271834,0.591512 -0.607834,0.591512 -0.336,0 -0.609,-0.264838 -0.609,-0.591512 z m -0.609,17.7535434 c 0,-0.326674 0.273,-0.591512 0.609,-0.591512 0.336,0 0.609,0.264838 0.609,0.591512 0,0.326673 -0.273,0.591513 -0.609,0.591513 -0.336,0 -0.609,-0.26484 -0.609,-0.591513 z m -19.4774997,0 c 0,-0.326674 0.2718327,-0.591512 0.6078336,-0.591512 0.336,0 0.609,0.264838 0.609,0.591512 0,0.326673 -0.273,0.591513 -0.609,0.591513 -0.3360009,0 -0.6078336,-0.26484 -0.6078336,-0.591513 z" />
  </g>
</svg>
