<?xml version="1.0" encoding="UTF-8" standalone="no"?>
<svg
   xmlns:dc="http://purl.org/dc/elements/1.1/"
   xmlns:cc="http://creativecommons.org/ns#"
   xmlns:rdf="http://www.w3.org/1999/02/22-rdf-syntax-ns#"
   xmlns:svg="http://www.w3.org/2000/svg"
   xmlns="http://www.w3.org/2000/svg"
   xmlns:xlink="http://www.w3.org/1999/xlink"
   xmlns:sodipodi="http://sodipodi.sourceforge.net/DTD/sodipodi-0.dtd"
   xmlns:inkscape="http://www.inkscape.org/namespaces/inkscape"
   inkscape:version="1.0 (4035a4fb49, 2020-05-01)"
   sodipodi:docname="kalarm.svg"
   width="22"
   height="22"
   id="svg3869"
   version="1.1"
   viewBox="0 0 22 22">
  <sodipodi:namedview
     inkscape:document-rotation="0"
     inkscape:current-layer="svg3869"
     inkscape:window-maximized="1"
     inkscape:window-y="42"
     inkscape:window-x="68"
     inkscape:cy="25.444743"
     inkscape:cx="3.095707"
     inkscape:zoom="15.170655"
     showgrid="false"
     id="namedview17"
     inkscape:window-height="2118"
     inkscape:window-width="3721"
     inkscape:pageshadow="2"
     inkscape:pageopacity="0"
     guidetolerance="10"
     gridtolerance="10"
     objecttolerance="10"
     borderopacity="1"
     bordercolor="#666666"
     pagecolor="#ffffff" />
  <metadata
     id="metadata16">
    <rdf:RDF>
      <cc:Work
         rdf:about="">
        <dc:format>image/svg+xml</dc:format>
        <dc:type
           rdf:resource="http://purl.org/dc/dcmitype/StillImage" />
        <dc:title />
      </cc:Work>
    </rdf:RDF>
  </metadata>
  <defs
     id="defs3871">
    <linearGradient
       id="linearGradient885"
       inkscape:collect="always">
      <stop
         id="stop881"
         offset="0"
         style="stop-color:#8b8eff;stop-opacity:1" />
      <stop
         id="stop883"
         offset="1"
         style="stop-color:#4ebdc0;stop-opacity:1" />
    </linearGradient>
    <linearGradient
       id="linearGradient877"
       inkscape:collect="always">
      <stop
         id="stop873"
         offset="0"
         style="stop-color:#8b8eff;stop-opacity:1" />
      <stop
         id="stop875"
         offset="1"
         style="stop-color:#4ebdc0;stop-opacity:1" />
    </linearGradient>
    <linearGradient
       id="linearGradient869"
       inkscape:collect="always">
      <stop
         id="stop865"
         offset="0"
         style="stop-color:#8b8eff;stop-opacity:1" />
      <stop
         id="stop867"
         offset="1"
         style="stop-color:#4ebdc0;stop-opacity:1" />
    </linearGradient>
    <style
       type="text/css"
       id="current-color-scheme">
      .ColorScheme-Text {
        color:#31363b;
      }
      .ColorScheme-Background {
        color:#eff0f1;
      }
      .ColorScheme-Highlight {
        color:#3daee9;
      }
      .ColorScheme-ViewText {
        color:#31363b;
      }
      .ColorScheme-ViewBackground {
        color:#fcfcfc;
      }
      .ColorScheme-ViewHover {
        color:#93cee9;
      }
      .ColorScheme-ViewFocus{
        color:#3daee9;
      }
      .ColorScheme-ButtonText {
        color:#31363b;
      }
      .ColorScheme-ButtonBackground {
        color:#eff0f1;
      }
      .ColorScheme-ButtonHover {
        color:#93cee9;
      }
      .ColorScheme-ButtonFocus{
        color:#3daee9;
      }
      </style>
    <radialGradient
       gradientTransform="matrix(1,0,0,1.9988829,0,-19.967616)"
       gradientUnits="userSpaceOnUse"
       r="9"
       fy="19.989946"
       fx="11"
       cy="19.989946"
       cx="11"
       id="radialGradient871"
       xlink:href="#linearGradient869"
       inkscape:collect="always" />
    <radialGradient
       gradientTransform="matrix(1,0,0,2.0000324,0,-20.00094)"
       gradientUnits="userSpaceOnUse"
       r="9"
       fy="20.000292"
       fx="11"
       cy="20.000292"
       cx="11"
       id="radialGradient879"
       xlink:href="#linearGradient877"
       inkscape:collect="always" />
    <radialGradient
       gradientTransform="matrix(1,0,0,1.9991487,0,-19.975318)"
       gradientUnits="userSpaceOnUse"
       r="9"
       fy="19.992338"
       fx="11"
       cy="19.992338"
       cx="11"
       id="radialGradient887"
       xlink:href="#linearGradient885"
       inkscape:collect="always" />
  </defs>
  <g
     id="kalarm"
     style="clip-rule:evenodd;fill-rule:evenodd;stroke-linejoin:round;stroke-miterlimit:1.41421">
    <path
       style="fill:url(#radialGradient871);fill-opacity:1"
       d="M 11,2 C 9.896,2 9,2.896 9,4 V 4.3417969 C 6.68,5.1627969 5.013,7.37175 5,9.96875 V 10 13 H 4 c -1.104,0 -2,0.896 -2,2 0,1.104 0.896,2 2,2 h 4 c 0,1.656 1.344,3 3,3 1.656,0 3,-1.344 3,-3 h 4 c 1.104,0 2,-0.896 2,-2 0,-1.104 -0.896,-2 -2,-2 H 17 V 10 C 17,7.39 15.329,5.1657969 13,4.3417969 V 4 C 13,2.896 12.104,2 11,2 Z m 0,1 c 0.552,0 1,0.448 1,1 V 4.082031 C 11.675,4.0270312 11.341,4 11,4 10.659,4 10.325,4.0270313 10,4.0820312 V 4 c 0,-0.552 0.448,-1 1,-1 z m 0,2 c 2.749,0 4.982,2.22375 5,4.96875 V 10 14 h 2 c 0.552,0 1,0.448 1,1 0,0.552 -0.448,1 -1,1 H 4 C 3.448,16 3,15.552 3,15 3,14.448 3.448,14 4,14 H 6 V 10 C 6,7.24 8.24,5 11,5 Z M 9,17 h 4 c 0,1.104 -0.896,2 -2,2 -1.104,0 -2,-0.896 -2,-2 z"
       id="path2"
       inkscape:connector-curvature="0" />
    <rect
       style="fill:#ffffff;fill-opacity:0;stroke-width:0.91742"
       id="rect822"
       width="22"
       height="22"
       x="0"
       y="0" />
  </g>
  <g
     transform="translate(22)"
     id="kalarm-disabled"
     style="clip-rule:evenodd;fill-rule:evenodd;stroke-linejoin:round;stroke-miterlimit:1.41421">
    <path
       style="fill:url(#radialGradient879);fill-opacity:1"
       d="M 11,2 C 9.896,2 9,2.896 9,4 V 4.3417969 C 6.68,5.1627969 5.013,7.37175 5,9.96875 V 10 13 H 4 c -1.104,0 -2,0.896 -2,2 0,1.104 0.896,2 2,2 h 4 c 0,1.656 1.344,3 3,3 1.656,0 3,-1.344 3,-3 h 4 c 1.104,0 2,-0.896 2,-2 0,-1.104 -0.896,-2 -2,-2 H 17 V 10 C 17,7.39 15.329,5.1657969 13,4.3417969 V 4 C 13,2.896 12.104,2 11,2 Z m 0,1 c 0.552,0 1,0.448 1,1 V 4.082031 C 11.675,4.0270312 11.341,4 11,4 10.659,4 10.325,4.0270313 10,4.0820312 V 4 c 0,-0.552 0.448,-1 1,-1 z m 0,2 c 2.749,0 4.982,2.22375 5,4.96875 V 10 14 h 2 c 0.552,0 1,0.448 1,1 0,0.552 -0.448,1 -1,1 H 4 C 3.448,16 3,15.552 3,15 3,14.448 3.448,14 4,14 H 6 V 10 C 6,7.24 8.24,5 11,5 Z M 8,8 v 6 h 2 V 8 Z m 4,0 v 6 h 2 V 8 Z m -3,9 h 4 c 0,1.104 -0.896,2 -2,2 -1.1,0 -1.993,-0.888328 -2,-1.986328 z"
       id="path2-1"
       inkscape:connector-curvature="0" />
    <rect
       style="fill:#ffffff;fill-opacity:0;stroke-width:1.23084"
       id="rect822-0"
       width="22"
       height="22"
       x="0"
       y="0" />
  </g>
  <g
     transform="translate(-22)"
     id="kalarm-partdisabled"
     style="clip-rule:evenodd;fill-rule:evenodd;stroke-linejoin:round;stroke-miterlimit:1.41421">
    <path
       sodipodi:nodetypes="ssccccssscscssscscsssscscssscccsssssscssccccccccczscc"
       style="fill:url(#radialGradient887);fill-opacity:1"
       d="M 11,2 C 9.896,2 9,2.896 9,4 V 4.3417969 C 6.68,5.1627969 5.013,7.37175 5,9.96875 V 10 13 H 4 c -1.104,0 -2,0.896 -2,2 0,1.104 0.896,2 2,2 h 4 c 0,1.656 1.344,3 3,3 1.656,0 3,-1.344 3,-3 h 4 c 1.104,0 2,-0.896 2,-2 0,-1.104 -0.896,-2 -2,-2 H 17 V 10 C 17,7.39 15.329,5.1657969 13,4.3417969 V 4 C 13,2.896 12.104,2 11,2 Z m 0,1 c 0.552,0 1,0.448 1,1 V 4.082031 C 11.675,4.0270312 11.341,4 11,4 10.659,4 10.325,4.0270313 10,4.0820312 V 4 c 0,-0.552 0.448,-1 1,-1 z m 0,2 c 2.749,0 4.982,2.22375 5,4.96875 V 10 14 h 2 c 0.552,0 1,0.448 1,1 0,0.552 -0.448,1 -1,1 H 4 C 3.448,16 3,15.552 3,15 3,14.448 3.448,14 4,14 H 6 V 10 C 6,7.24 8.24,5 11,5 Z M 8,8 v 6 z m 0,0 v 6 h 6 V 8 Z m 1,9 h 4 c 0,1.104 -0.896,2 -2,2 -1.1,0 -1.993,-0.888328 -2,-1.986328 z"
       id="path2-1-6"
       inkscape:connector-curvature="0" />
    <rect
       style="fill:#ffffff;fill-opacity:0;stroke-width:1.23084"
       id="rect822-0-6"
       width="22"
       height="22"
       x="0"
       y="0" />
  </g>
</svg>
