<?xml version="1.0" encoding="UTF-8" standalone="no"?>
<!-- Created with Inkscape (http://www.inkscape.org/) -->

<svg
   width="6.3499999mm"
   height="6.3499999mm"
   viewBox="0 0 6.3499999 6.3499999"
   version="1.1"
   id="svg3424"
   inkscape:version="1.2.1 (9c6d41e410, 2022-07-14)"
   sodipodi:docname="system-switch-user.svg"
   xmlns:inkscape="http://www.inkscape.org/namespaces/inkscape"
   xmlns:sodipodi="http://sodipodi.sourceforge.net/DTD/sodipodi-0.dtd"
   xmlns="http://www.w3.org/2000/svg"
   xmlns:svg="http://www.w3.org/2000/svg"
   xmlns:rdf="http://www.w3.org/1999/02/22-rdf-syntax-ns#"
   xmlns:cc="http://creativecommons.org/ns#"
   xmlns:dc="http://purl.org/dc/elements/1.1/">
  <defs
     id="defs3418" />
  <sodipodi:namedview
     id="base"
     pagecolor="#ffffff"
     bordercolor="#666666"
     borderopacity="1.0"
     inkscape:pageopacity="0.0"
     inkscape:pageshadow="2"
     inkscape:zoom="63.356768"
     inkscape:cx="11.198488"
     inkscape:cy="13.42398"
     inkscape:document-units="mm"
     inkscape:current-layer="layer1"
     showgrid="false"
     inkscape:window-width="3790"
     inkscape:window-height="2130"
     inkscape:window-x="50"
     inkscape:window-y="17"
     inkscape:window-maximized="1"
     inkscape:showpageshadow="2"
     inkscape:pagecheckerboard="0"
     inkscape:deskcolor="#d1d1d1" />
  <metadata
     id="metadata3421">
    <rdf:RDF>
      <cc:Work
         rdf:about="">
        <dc:format>image/svg+xml</dc:format>
        <dc:type
           rdf:resource="http://purl.org/dc/dcmitype/StillImage" />
        <dc:title />
      </cc:Work>
    </rdf:RDF>
  </metadata>
  <g
     inkscape:label="Layer 1"
     inkscape:groupmode="layer"
     id="layer1"
     transform="translate(-3.1080012,-17.194)">
    <rect
       y="17.194"
       x="3.1080012"
       height="6.3499999"
       width="6.3499999"
       id="rect4570-7-1"
       style="color:#000000;display:inline;overflow:visible;visibility:visible;opacity:0.01000001;fill:#000000;fill-opacity:0.00392157;stroke:none;stroke-width:1.32291663;marker:none;enable-background:accumulate" />
    <path
       inkscape:connector-curvature="0"
       d="m 5.3361205,20.248847 c -0.1466467,0.14245 -0.3199683,0.207041 -0.5310913,0.207041 -0.2111116,0 -0.3852436,-0.06638 -0.5318932,-0.208825 -0.2306277,0.083 -0.5064125,0.294193 -0.506739,0.663064 l -8.202e-4,0.688041 c 0,0.124738 0.092955,0.225715 0.2078866,0.225715 h 1.6630949 c 0.115167,0 0.2078876,-0.101896 0.2078876,-0.228459 v -0.68537 c 0,-0.316799 -0.2291588,-0.583884 -0.5083453,-0.663953 z m 0.1540867,-0.709371 c -0.00146,0.912449 -1.369309,0.912449 -1.3706729,0 -0.00135,-0.91518 1.3720387,-0.91518 1.3706729,0 z m 1.4939764,-0.400257 c -0.068387,-0.04019 -1.1397192,0.589572 -1.1397192,0.669947 0,0.08038 1.0713323,0.709732 1.1397192,0.669544 0.024474,-0.01436 0.036891,-0.199096 0.043852,-0.413745 H 8.0833077 V 19.552964 H 7.0280356 c -0.00699,-0.214568 -0.019367,-0.399378 -0.043852,-0.413745 z m 0.630973,1.343147 c -0.024474,0.01436 -0.036888,0.199501 -0.043852,0.414146 H 6.5160351 v 0.511597 h 1.0552695 c 0.00699,0.214648 0.01942,0.399374 0.043852,0.413743 0.068387,0.04019 1.1397245,-0.589166 1.1397245,-0.669541 0,-0.08038 -1.0713376,-0.710134 -1.1397245,-0.669945 z"
       style="color:#000000;display:inline;overflow:visible;visibility:visible;fill:#ffffff;fill-opacity:1;fill-rule:evenodd;stroke:none;stroke-width:0.79375;marker:none;enable-background:accumulate"
       id="path4106-3-4"
       sodipodi:nodetypes="cscccssssccccccsccccccccccccsc" />
  </g>
</svg>
