<?xml version="1.0" encoding="UTF-8" standalone="no"?>
<svg
   width="64"
   height="64"
   viewBox="0 0 64 64"
   version="1.1"
   id="svg22024"
   sodipodi:docname="kvantum.svg"
   inkscape:version="1.2.2 (b0a8486541, 2022-12-01)"
   xmlns:inkscape="http://www.inkscape.org/namespaces/inkscape"
   xmlns:sodipodi="http://sodipodi.sourceforge.net/DTD/sodipodi-0.dtd"
   xmlns:xlink="http://www.w3.org/1999/xlink"
   xmlns="http://www.w3.org/2000/svg"
   xmlns:svg="http://www.w3.org/2000/svg">
  <sodipodi:namedview
     id="namedview22026"
     pagecolor="#ffffff"
     bordercolor="#666666"
     borderopacity="1.0"
     inkscape:showpageshadow="2"
     inkscape:pageopacity="0"
     inkscape:pagecheckerboard="0"
     inkscape:deskcolor="#d1d1d1"
     showgrid="true"
     inkscape:zoom="11.313709"
     inkscape:cx="37.078912"
     inkscape:cy="27.842329"
     inkscape:window-width="1899"
     inkscape:window-height="2126"
     inkscape:window-x="1921"
     inkscape:window-y="1112"
     inkscape:window-maximized="0"
     inkscape:current-layer="svg22024">
    <inkscape:grid
       type="xygrid"
       id="grid1656" />
  </sodipodi:namedview>
  <defs
     id="defs22004">
    <linearGradient
       id="linearGradient4212">
      <stop
         style="stop-color:#000000;stop-opacity:1;"
         offset="0"
         id="stop21980" />
      <stop
         style="stop-color:#000000;stop-opacity:0;"
         offset="1"
         id="stop21982" />
    </linearGradient>
    <linearGradient
       id="linearGradient4198">
      <stop
         style="stop-color:#272b2d;stop-opacity:1;"
         offset="0"
         id="stop21985" />
      <stop
         style="stop-color:#3e4447;stop-opacity:1"
         offset="1"
         id="stop21987" />
    </linearGradient>
    <linearGradient
       id="linearGradient4185">
      <stop
         style="stop-color:#acacac;stop-opacity:1"
         offset="0"
         id="stop21990" />
      <stop
         style="stop-color:#cbcbcb;stop-opacity:1"
         offset="1"
         id="stop21992" />
    </linearGradient>
    <linearGradient
       id="linearGradient4144">
      <stop
         style="stop-color:#3b962d;stop-opacity:1"
         offset="0"
         id="stop21995" />
      <stop
         style="stop-color:#93d169;stop-opacity:1"
         offset="1"
         id="stop21997" />
    </linearGradient>
    <linearGradient
       xlink:href="#linearGradient4144"
       id="linearGradient4150"
       x1="25"
       y1="1046.3621"
       x2="25"
       y2="1010.362"
       gradientUnits="userSpaceOnUse"
       gradientTransform="translate(86.850772,-1045.9604)" />
    <radialGradient
       xlink:href="#linearGradient4185"
       id="radialGradient4191"
       cx="24"
       cy="1025.3621"
       fx="24"
       fy="1025.3621"
       r="2"
       gradientTransform="matrix(1,0,0,0.9998745,86.850772,-1045.8317)"
       gradientUnits="userSpaceOnUse" />
    <linearGradient
       xlink:href="#linearGradient4198"
       id="linearGradient4204"
       x1="24"
       y1="1032.3621"
       x2="24"
       y2="1018.362"
       gradientUnits="userSpaceOnUse"
       gradientTransform="translate(86.850772,-1045.9604)" />
    <linearGradient
       xlink:href="#linearGradient4212"
       id="linearGradient4218"
       x1="20"
       y1="17"
       x2="38"
       y2="35"
       gradientUnits="userSpaceOnUse"
       gradientTransform="translate(86.850772,-41.5982)" />
    <radialGradient
       xlink:href="#linearGradient4185"
       id="radialGradient4191-8"
       cx="24"
       cy="1025.3621"
       fx="24"
       fy="1025.3621"
       r="2"
       gradientTransform="matrix(1.3333244,0,0,1.3331571,-53.621395,-1399.2795)"
       gradientUnits="userSpaceOnUse" />
    <radialGradient
       xlink:href="#linearGradient4185"
       id="radialGradient4191-8-3"
       cx="24"
       cy="1025.3621"
       fx="24"
       fy="1025.3621"
       r="2"
       gradientTransform="matrix(1.3999917,0,0,1.3998155,-2.0999057,-1415.0207)"
       gradientUnits="userSpaceOnUse" />
    <linearGradient
       id="linearGradient882"
       x1="43.455002"
       x2="43.455002"
       y1="140.14999"
       y2="153.38"
       gradientTransform="matrix(0.94488,0,0,0.94488,-30.559,-127.93)"
       gradientUnits="userSpaceOnUse"
       xlink:href="#linearGradient880" />
    <linearGradient
       id="linearGradient880">
      <stop
         stop-color="#333"
         offset="0"
         id="stop1767" />
      <stop
         offset="1"
         id="stop1769" />
    </linearGradient>
    <linearGradient
       id="linearGradient990"
       x1="30"
       x2="30"
       y1="33"
       y2="5.7823"
       gradientTransform="matrix(0.25926,0,0,0.29412,2.7037,4.2941)"
       gradientUnits="userSpaceOnUse">
      <stop
         stop-color="#2ca0b9"
         offset="0"
         id="stop1777" />
      <stop
         stop-color="#87deaa"
         offset="1"
         id="stop1779" />
    </linearGradient>
    <linearGradient
       id="linearGradient899"
       x1="42.924999"
       x2="42.924999"
       y1="149.41"
       y2="151.78999"
       gradientTransform="matrix(0.41176,0,0,0.33333,-14.329,245.08)"
       gradientUnits="userSpaceOnUse">
      <stop
         stop-color="#4d4d4d"
         offset="0"
         id="stop1772" />
      <stop
         stop-color="#1a1a1a"
         offset="1"
         id="stop1774" />
    </linearGradient>
    <linearGradient
       id="linearGradient982"
       x1="35"
       x2="35"
       y1="-2"
       y2="48"
       gradientTransform="matrix(0.29412,0,0,0.40004,1.5883,1.8003)"
       gradientUnits="userSpaceOnUse"
       xlink:href="#linearGradient880" />
    <linearGradient
       xlink:href="#c"
       id="d"
       y1="9.2679996"
       x1="-28.756001"
       y2="27.436001"
       x2="-10.858"
       gradientUnits="userSpaceOnUse"
       gradientTransform="translate(0,-1.022)" />
    <linearGradient
       id="c"
       y1="9.1780005"
       x1="-14.65"
       y2="17.521999"
       x2="-6.4299998"
       gradientUnits="userSpaceOnUse"
       gradientTransform="translate(1.01,-1.022)">
      <stop
         id="stop178" />
      <stop
         offset="1"
         stop-opacity="0"
         id="stop180" />
    </linearGradient>
    <linearGradient
       id="a"
       y1="38"
       y2="13"
       x2="0"
       gradientUnits="userSpaceOnUse"
       gradientTransform="matrix(1.0000229,0,0,1.0000026,-81.711479,-28.168932)">
      <stop
         stop-color="#8e44ad"
         id="stop168" />
      <stop
         offset="1"
         stop-color="#9b59b6"
         id="stop170" />
    </linearGradient>
    <linearGradient
       xlink:href="#c"
       id="d-3"
       y1="9.2679996"
       x1="-28.756001"
       y2="27.436001"
       x2="-10.858"
       gradientUnits="userSpaceOnUse"
       gradientTransform="translate(0,-1.022)" />
    <linearGradient
       id="b"
       y1="37.956001"
       x1="-2.994"
       y2="-0.88300002"
       x2="-41.259998"
       gradientUnits="userSpaceOnUse"
       gradientTransform="translate(0,-1.022)">
      <stop
         stop-color="#34495e"
         id="stop173" />
      <stop
         offset="1"
         stop-color="#1c7865"
         id="stop175" />
    </linearGradient>
    <linearGradient
       id="a-3"
       y1="38"
       y2="13"
       x2="0"
       gradientUnits="userSpaceOnUse"
       gradientTransform="matrix(1.2000629,0,0,1.2000385,9.42864,13.136998)">
      <stop
         stop-color="#8e44ad"
         id="stop168-5" />
      <stop
         offset="1"
         stop-color="#9b59b6"
         id="stop170-6" />
    </linearGradient>
    <radialGradient
       id="radialGradient24818"
       cx="2.0371351"
       cy="4.1619487"
       r="7.5405002"
       gradientTransform="matrix(7.2939457,6.4982427,-5.297779,4.9992149,12.190333,-29.044274)"
       gradientUnits="userSpaceOnUse"
       fx="2.0371351"
       fy="4.1619487">
      <stop
         stop-color="#bf616a"
         offset="0"
         id="stop193"
         style="stop-color:#ff001b;stop-opacity:1;" />
      <stop
         stop-color="#bf616a"
         offset="0.1"
         id="stop195"
         style="stop-color:#ff0018;stop-opacity:1;" />
      <stop
         stop-color="#d08770"
         offset="0.17"
         id="stop197"
         style="stop-color:#ff3b00;stop-opacity:1;" />
      <stop
         stop-color="#d08770"
         offset="0.25999999"
         id="stop199"
         style="stop-color:#ff3500;stop-opacity:1;" />
      <stop
         stop-color="#a3be8c"
         offset="0.37"
         id="stop201"
         style="stop-color:#72ff00;stop-opacity:1;" />
      <stop
         stop-color="#a3be8c"
         offset="0.47999999"
         id="stop203"
         style="stop-color:#73ff00;stop-opacity:1;" />
      <stop
         stop-color="#88c0d0"
         offset="0.57287097"
         id="stop205"
         style="stop-color:#00eeff;stop-opacity:1;" />
      <stop
         stop-color="#5e81ac"
         offset="0.6961745"
         id="stop209"
         style="stop-color:#0072ff;stop-opacity:1;" />
      <stop
         stop-color="#b48ead"
         offset="0.85921919"
         id="stop211"
         style="stop-color:#ff00ff;stop-opacity:1;" />
      <stop
         stop-color="#b48ead"
         offset="1"
         id="stop213"
         style="stop-color:#ff00a6;stop-opacity:1;" />
    </radialGradient>
    <linearGradient
       id="linearGradient28836"
       x1="4.5465999"
       x2="12.99"
       y1="4.1176"
       y2="12.422"
       gradientUnits="userSpaceOnUse"
       gradientTransform="matrix(3.8458993,0,0,3.6055302,-0.56145776,-0.33887876)">
      <stop
         stop-color="#eceff4"
         offset="0"
         id="stop216" />
      <stop
         stop-color="#d8dee9"
         offset="1"
         id="stop218" />
    </linearGradient>
  </defs>
  <path
     d="m 3,50 c 0.3206906,0.0763 58,0 58,0 l 2e-6,3.75 c 2e-6,4.004173 -3.245827,7.25 -7.25,7.25 H 10.249999 C 6.2459365,61 2.9999969,57.754173 2.9999985,53.75 Z"
     id="path736-7"
     style="fill:#606c86;fill-opacity:1;stroke-width:3.625"
     sodipodi:nodetypes="ccssssc" />
  <path
     id="rect225"
     style="fill:url(#radialGradient24818);stroke-linecap:round;stroke-linejoin:round"
     d="M 10.25 3 C 6.2335051 3 3 6.1220039 3 10 L 3 50.375 C 3 54.252996 6.2335051 57.375 10.25 57.375 L 53.75 57.375 C 57.766495 57.375 61 54.252996 61 50.375 L 61 10 C 61 6.1220039 57.766495 3 53.75 3 L 10.25 3 z M 17.605469 12.041016 C 23.56165 12.041016 25.050781 12.320798 25.050781 13.4375 C 25.050781 14.205403 24.195214 14.833984 23.148438 14.833984 C 21.679806 14.833984 21.017573 15.842608 20.248047 19.253906 C 18.214803 28.266602 17.902827 30.654297 18.759766 30.654297 C 19.806619 30.654297 34.978516 16.487271 34.978516 15.509766 C 34.978516 15.137172 34.08423 14.833984 32.992188 14.833984 C 31.889108 14.833984 31.007812 14.213045 31.007812 13.4375 C 31.007812 12.329565 32.442014 12.041016 37.957031 12.041016 C 43.471927 12.041016 44.90625 12.329594 44.90625 13.4375 C 44.90625 14.26958 43.991743 14.833984 42.644531 14.833984 C 41.164628 14.833984 38.004133 17.083195 33.488281 21.349609 L 26.589844 27.865234 L 31.273438 36.705078 C 33.849651 41.566769 36.407373 45.544922 36.957031 45.544922 C 37.506453 45.544922 37.956259 45.438582 37.957031 45.310547 C 37.957797 45.182559 38.627787 41.518762 39.445312 37.167969 C 40.262793 32.81718 40.93285 29.153429 40.933594 29.025391 C 40.934361 28.896979 40.041262 28.792969 38.949219 28.792969 C 37.857252 28.792969 36.962891 28.373133 36.962891 27.861328 C 36.962891 27.349561 37.577333 26.931641 38.328125 26.931641 C 39.07881 26.931641 41.088689 26.669524 42.794922 26.349609 C 45.698305 25.805103 45.896761 25.938673 45.863281 28.443359 C 45.844166 29.915135 45.206825 33.838024 44.447266 37.160156 C 43.687925 40.482289 43.263001 43.383485 43.503906 43.609375 C 44.641139 44.675531 53.423237 33.994829 54.378906 30.382812 C 55.160119 27.430031 55.954079 26.392225 57.605469 26.167969 C 59.18786 25.953223 59.794922 26.347848 59.794922 27.589844 C 59.794922 30.094241 57.454519 33.029724 49.005859 41.123047 C 41.52444 48.289769 41.444494 48.335938 36.314453 48.335938 C 30.322547 48.335938 29.278474 47.435525 24.621094 38.255859 C 22.389404 33.857187 21.21043 32.515625 19.580078 32.515625 C 17.749776 32.515625 17.290574 33.343766 16.289062 38.439453 C 14.760704 46.215162 14.786575 46.474609 17.109375 46.474609 C 18.201342 46.474609 19.095703 46.894448 19.095703 47.40625 C 19.095703 47.944051 15.952028 48.335938 11.650391 48.335938 C 7.3486012 48.335938 4.2050781 47.944015 4.2050781 47.40625 C 4.2050781 46.894397 4.8842456 46.474609 5.7148438 46.474609 C 7.8807726 46.474609 8.7965129 43.866138 11.621094 29.634766 C 14.638351 14.432394 14.623664 14.833984 12.146484 14.833984 C 11.043592 14.833984 10.162109 14.21305 10.162109 13.4375 C 10.162109 12.320605 11.649332 12.041016 17.605469 12.041016 z " />
</svg>
