<?xml version="1.0" encoding="UTF-8" standalone="no"?>
<svg
   xmlns:dc="http://purl.org/dc/elements/1.1/"
   xmlns:cc="http://creativecommons.org/ns#"
   xmlns:rdf="http://www.w3.org/1999/02/22-rdf-syntax-ns#"
   xmlns:svg="http://www.w3.org/2000/svg"
   xmlns="http://www.w3.org/2000/svg"
   xmlns:xlink="http://www.w3.org/1999/xlink"
   xmlns:sodipodi="http://sodipodi.sourceforge.net/DTD/sodipodi-0.dtd"
   xmlns:inkscape="http://www.inkscape.org/namespaces/inkscape"
   inkscape:version="1.0 (4035a4fb49, 2020-05-01)"
   sodipodi:docname="airplane-mode.svg"
   id="svg4153"
   version="1.1"
   width="22"
   height="22"
   viewBox="0 0 22 22">
  <sodipodi:namedview
     inkscape:document-rotation="0"
     inkscape:measure-end="42,-20"
     inkscape:measure-start="37,-20"
     showguides="false"
     inkscape:pagecheckerboard="false"
     showborder="true"
     fit-margin-bottom="0"
     fit-margin-right="0"
     fit-margin-left="0"
     fit-margin-top="0"
     inkscape:current-layer="svg4153"
     inkscape:window-maximized="0"
     inkscape:window-y="40"
     inkscape:window-x="4"
     inkscape:cy="-91.418559"
     inkscape:cx="-122.52596"
     inkscape:zoom="2.8284271"
     showgrid="true"
     id="namedview748"
     inkscape:window-height="2116"
     inkscape:window-width="1884"
     inkscape:pageshadow="2"
     inkscape:pageopacity="1"
     guidetolerance="10"
     gridtolerance="10"
     objecttolerance="10"
     borderopacity="1"
     bordercolor="#666666"
     pagecolor="#353535">
    <inkscape:grid
       originy="-76.000002"
       originx="-88"
       id="grid1135"
       type="xygrid" />
  </sodipodi:namedview>
  <metadata
     id="metadata4159">
    <rdf:RDF>
      <cc:Work
         rdf:about="">
        <dc:format>image/svg+xml</dc:format>
        <dc:type
           rdf:resource="http://purl.org/dc/dcmitype/StillImage" />
        <dc:title></dc:title>
      </cc:Work>
    </rdf:RDF>
  </metadata>
  <defs
     id="defs4157">
    <linearGradient
       inkscape:collect="always"
       id="linearGradient1336">
      <stop
         style="stop-color:#ff4d62;stop-opacity:1;"
         offset="0"
         id="stop1332" />
      <stop
         style="stop-color:#ff00ff;stop-opacity:1"
         offset="1"
         id="stop1334" />
    </linearGradient>
    <style
       type="text/css"
       id="current-color-scheme">
      .ColorScheme-Text {
        color:#31363b;
      }
      .ColorScheme-Background {
        color:#eff0f1;
      }
      .ColorScheme-Highlight {
        color:#3498db;
      }
      .ColorScheme-ViewText {
        color:#31363b;
      }
      .ColorScheme-ViewBackground {
        color:#fcfcfc;
      }
      .ColorScheme-ViewHover {
        color:#93cee9;
      }
      .ColorScheme-ViewFocus{
        color:#3daee9;
      }
      .ColorScheme-ButtonText {
        color:#31363b;
      }
      .ColorScheme-ButtonBackground {
        color:#eff0f1;
      }
      .ColorScheme-ButtonHover {
        color:#93cee9;
      }
      .ColorScheme-ButtonFocus{
        color:#3daee9;
      }
      </style>
    <pattern
       id="EMFhbasepattern"
       patternUnits="userSpaceOnUse"
       width="6"
       height="6"
       x="0"
       y="0" />
    <linearGradient
       gradientUnits="userSpaceOnUse"
       y2="1.999998"
       x2="11"
       y1="19.999998"
       x1="11"
       id="linearGradient1452"
       xlink:href="#linearGradient1336"
       inkscape:collect="always" />
  </defs>
  <g
     id="flightmode-on"
     style="clip-rule:evenodd;fill-rule:evenodd;stroke-linejoin:round;stroke-miterlimit:1.41421">
    <path
       d="M 3,15 H 2 V 11.388 L 2.778,11 9,8.099 V 4 c 0,-1.104 0.896,-2 2,-2 1.104,0 2,0.896 2,2 V 8.099 L 19.222,11 20,11.363 V 15 h -1 v 0 l -6,-1.058 v 1.481 l 3,1.732 v 0.762 L 15.83,18.211 16,17.917 V 20 h -1 v 0 L 11.268,19 H 10.741 L 7.009,20 7,19.967 V 20 H 6 V 18.309 17.155 L 6.268,17 9,15.423 v -1.481 z m 12,5 z m -3,-4 v -3.25 l 7,1.235 V 12 L 12,8.736 V 4 C 12,3.448 11.552,3 11,3 10.448,3 10,3.448 10,4 V 8.736 L 3,12 v 1.985 L 10,12.75 V 16 l -3,1.732 v 1.235 L 6.75,19.034 7,18.967 10.614,17.999 V 18 h 0.781 L 11.174,18.824 11.395,18 V 17.999 L 11.4,18 H 11.395 11.4 L 15.259,19.034 15,18.965 v -1.233 z"
       style="fill:url(#linearGradient1452);fill-opacity:1"
       id="path2-12"
       inkscape:connector-curvature="0" />
    <rect
       style="fill:#fafafa;fill-opacity:0;stroke-width:0.91767"
       id="rect822-7"
       width="22"
       height="22"
       x="0"
       y="0" />
  </g>
</svg>
