<?xml version="1.0" encoding="UTF-8" standalone="no"?>
<svg
   xmlns:dc="http://purl.org/dc/elements/1.1/"
   xmlns:cc="http://creativecommons.org/ns#"
   xmlns:rdf="http://www.w3.org/1999/02/22-rdf-syntax-ns#"
   xmlns:svg="http://www.w3.org/2000/svg"
   xmlns="http://www.w3.org/2000/svg"
   xmlns:xlink="http://www.w3.org/1999/xlink"
   xmlns:sodipodi="http://sodipodi.sourceforge.net/DTD/sodipodi-0.dtd"
   xmlns:inkscape="http://www.inkscape.org/namespaces/inkscape"
   inkscape:version="1.0 (4035a4fb49, 2020-05-01)"
   sodipodi:docname="wifi.svg"
   id="svg4153"
   version="1.1"
   width="31.999998"
   height="31.999998"
   viewBox="0 0 31.999998 31.999998">
  <sodipodi:namedview
     inkscape:document-rotation="0"
     inkscape:measure-end="42,-20"
     inkscape:measure-start="37,-20"
     showguides="false"
     inkscape:pagecheckerboard="false"
     showborder="true"
     fit-margin-bottom="0"
     fit-margin-right="0"
     fit-margin-left="0"
     fit-margin-top="0"
     inkscape:current-layer="svg4153"
     inkscape:window-maximized="0"
     inkscape:window-y="40"
     inkscape:window-x="4"
     inkscape:cy="-15.61542"
     inkscape:cx="-114.18057"
     inkscape:zoom="2.8284271"
     showgrid="true"
     id="namedview748"
     inkscape:window-height="2116"
     inkscape:window-width="1884"
     inkscape:pageshadow="2"
     inkscape:pageopacity="1"
     guidetolerance="10"
     gridtolerance="10"
     objecttolerance="10"
     borderopacity="1"
     bordercolor="#666666"
     pagecolor="#353535">
    <inkscape:grid
       originy="9.9999617"
       originx="-96"
       id="grid1135"
       type="xygrid" />
  </sodipodi:namedview>
  <metadata
     id="metadata4159">
    <rdf:RDF>
      <cc:Work
         rdf:about="">
        <dc:format>image/svg+xml</dc:format>
        <dc:type
           rdf:resource="http://purl.org/dc/dcmitype/StillImage" />
        <dc:title></dc:title>
      </cc:Work>
    </rdf:RDF>
  </metadata>
  <defs
     id="defs4157">
    <linearGradient
       id="linearGradient1414"
       inkscape:collect="always">
      <stop
         id="stop1410"
         offset="0"
         style="stop-color:#268aff;stop-opacity:1;" />
      <stop
         id="stop1412"
         offset="1"
         style="stop-color:#00ffaa;stop-opacity:1" />
    </linearGradient>
    <style
       type="text/css"
       id="current-color-scheme">
      .ColorScheme-Text {
        color:#31363b;
      }
      .ColorScheme-Background {
        color:#eff0f1;
      }
      .ColorScheme-Highlight {
        color:#3498db;
      }
      .ColorScheme-ViewText {
        color:#31363b;
      }
      .ColorScheme-ViewBackground {
        color:#fcfcfc;
      }
      .ColorScheme-ViewHover {
        color:#93cee9;
      }
      .ColorScheme-ViewFocus{
        color:#3daee9;
      }
      .ColorScheme-ButtonText {
        color:#31363b;
      }
      .ColorScheme-ButtonBackground {
        color:#eff0f1;
      }
      .ColorScheme-ButtonHover {
        color:#93cee9;
      }
      .ColorScheme-ButtonFocus{
        color:#3daee9;
      }
      </style>
    <pattern
       id="EMFhbasepattern"
       patternUnits="userSpaceOnUse"
       width="6"
       height="6"
       x="0"
       y="0" />
    <radialGradient
       gradientTransform="matrix(2,-2,2,2,-86.999965,29.000017)"
       gradientUnits="userSpaceOnUse"
       r="13"
       fy="28.999983"
       fx="29"
       cy="28.999983"
       cx="29"
       id="radialGradient1424"
       xlink:href="#linearGradient1414"
       inkscape:collect="always" />
  </defs>
  <g
     id="network-wireless-available"
     transform="matrix(3.7795275,0,0,3.7795275,0,-1090.5196)">
    <path
       sodipodi:nodetypes="ccccccccscccccccccccccccccccccccccccccccccccccccccccccccccccc"
       style="opacity:1;fill:url(#radialGradient1424);fill-opacity:1;stroke-width:0.866025"
       d="M 29,3 C 14.640597,3 3,14.640597 3,29 H 4 6 7 C 6.9997917,28.266212 7.036296,27.532874 7.109375,26.802734 7.1831,26.073076 7.2932634,25.347561 7.4394531,24.628906 7.58481,23.910013 7.7660259,23.198838 7.9824219,22.498047 c 0.2167505,-0.700282 0.4683664,-1.389292 0.7539062,-2.064453 0.2857887,-0.675701 0.6051982,-1.336683 0.9570313,-1.980469 0.3513216,-0.643751 0.7346126,-1.269532 1.1484376,-1.875 0.414557,-0.605176 0.859123,-1.189239 1.332031,-1.75 0.472213,-0.561091 0.972186,-1.09822 1.498047,-1.609375 0.526245,-0.510967 1.077715,-0.995296 1.652344,-1.451172 0.574652,-0.455994 1.171752,-0.88296 1.789062,-1.279297 0.617393,-0.396835 1.254257,-0.7625265 1.908203,-1.0957029 0.653234,-0.3327117 1.322689,-0.632565 2.00586,-0.8984375 0.683965,-0.2657952 1.380799,-0.4972043 2.08789,-0.6933594 0.706393,-0.1957833 1.42213,-0.3561395 2.144532,-0.4804687 0.72298,-0.1248971 1.451755,-0.2135496 2.183593,-0.265625 C 27.961431,7.0180899 28.480637,6.9998493 29,7 V 4 Z m 0,7 C 18.50659,10 10,18.50659 10,29 h 1 3 c 0,-8.284271 6.715729,-15 15,-15 v -3 z m 0,7 c -6.627417,0 -12,5.372583 -12,12 h 1 3 c -3.07e-4,-0.266761 0.01273,-0.53337 0.03906,-0.798828 0.02714,-0.265527 0.06756,-0.529529 0.121094,-0.791016 0.05285,-0.260934 0.118682,-0.519068 0.197266,-0.773437 0.07855,-0.255055 0.169806,-0.50602 0.273437,-0.751953 0.103791,-0.245883 0.219822,-0.486419 0.347657,-0.720704 0.127874,-0.234038 0.267371,-0.461536 0.417968,-0.68164 0.150738,-0.220185 0.312399,-0.43269 0.484375,-0.636719 0.171804,-0.203613 0.353671,-0.398517 0.544922,-0.583984 0.191554,-0.18637 0.392327,-0.363024 0.601563,-0.529297 0.208914,-0.16569 0.425982,-0.320832 0.65039,-0.464844 0.224374,-0.143624 0.455783,-0.27595 0.69336,-0.396484 0.237859,-0.1215 0.481654,-0.231013 0.730468,-0.328125 0.248252,-0.09655 0.501172,-0.180637 0.757813,-0.251953 0.257353,-0.07094 0.518096,-0.128956 0.78125,-0.173828 0.262531,-0.04574 0.527184,-0.07833 0.792969,-0.09766 C 28.622105,21.006331 28.811026,20.999818 29,21 v -3 z m 0,6.998047 c -2.762187,0 -5.001079,2.239767 -5,5.001953 h 1 4 V 28 25 H 28.95313 C 28.96875,24.999257 28.98437,24.9986 29,24.998 Z"
       transform="matrix(0.26458333,0,0,0.26458333,0,288.53332)"
       id="rect850-0-9-94"
       inkscape:connector-curvature="0" />
    <rect
       style="opacity:1;fill:#ffff00;fill-opacity:0;stroke-width:0.264583"
       id="rect963-6-7-7"
       width="8.4666662"
       height="8.4666662"
       x="0"
       y="288.53333" />
  </g>
</svg>
