<?xml version="1.0" encoding="UTF-8" standalone="no"?>
<!-- Created with Inkscape (http://www.inkscape.org/) -->

<svg
   xmlns:dc="http://purl.org/dc/elements/1.1/"
   xmlns:cc="http://creativecommons.org/ns#"
   xmlns:rdf="http://www.w3.org/1999/02/22-rdf-syntax-ns#"
   xmlns:svg="http://www.w3.org/2000/svg"
   xmlns="http://www.w3.org/2000/svg"
   xmlns:xlink="http://www.w3.org/1999/xlink"
   xmlns:sodipodi="http://sodipodi.sourceforge.net/DTD/sodipodi-0.dtd"
   xmlns:inkscape="http://www.inkscape.org/namespaces/inkscape"
   width="355"
   height="310"
   id="svg3642"
   sodipodi:version="0.32"
   inkscape:version="0.92.4 (5da689c313, 2019-01-14)"
   sodipodi:docname="decoration.svg"
   inkscape:output_extension="org.inkscape.output.svg.inkscape"
   version="1.0"
   inkscape:export-filename="/home/diau/svn/playground-plasma/desktoptheme/air/widgets/background.png"
   inkscape:export-xdpi="90"
   inkscape:export-ydpi="90">
  <sodipodi:namedview
     id="base"
     pagecolor="#ffffff"
     bordercolor="#666666"
     borderopacity="1.0"
     inkscape:pageopacity="1"
     inkscape:pageshadow="2"
     inkscape:zoom="0.7488873"
     inkscape:cx="419.77226"
     inkscape:cy="64.600402"
     inkscape:current-layer="layer1"
     showgrid="false"
     inkscape:grid-bbox="true"
     inkscape:document-units="px"
     inkscape:window-width="1920"
     inkscape:window-height="1028"
     inkscape:window-x="0"
     inkscape:window-y="0"
     width="48px"
     height="48px"
     showguides="true"
     inkscape:guide-bbox="true"
     objecttolerance="9"
     gridtolerance="13"
     inkscape:window-maximized="1"
     inkscape:snap-global="true"
     inkscape:snap-bbox="true"
     inkscape:bbox-paths="true"
     inkscape:bbox-nodes="false"
     inkscape:snap-nodes="false"
     inkscape:snap-grids="true"
     inkscape:snap-page="true"
     inkscape:lockguides="true">
    <inkscape:grid
       type="xygrid"
       id="grid3203"
       empspacing="5"
       visible="true"
       enabled="true"
       snapvisiblegridlinesonly="true" />
  </sodipodi:namedview>
  <defs
     id="defs3644">
    <linearGradient
       id="linearGradient1024"
       inkscape:collect="always">
      <stop
         id="stop1020"
         offset="0"
         style="stop-color:#1e1f28;stop-opacity:1" />
      <stop
         id="stop1022"
         offset="1"
         style="stop-color:#0f1019;stop-opacity:1" />
    </linearGradient>
    <linearGradient
       id="linearGradient4042">
      <stop
         style="stop-color:#000000;stop-opacity:1;"
         offset="0"
         id="stop4044" />
      <stop
         style="stop-color:#000000;stop-opacity:0.74096388;"
         offset="0.08982162"
         id="stop4046" />
      <stop
         style="stop-color:#000000;stop-opacity:0.60240966;"
         offset="0.25"
         id="stop4048" />
      <stop
         style="stop-color:#000000;stop-opacity:0.33132529;"
         offset="0.5"
         id="stop4050" />
      <stop
         id="stop4052"
         offset="0.75"
         style="stop-color:#000000;stop-opacity:0.10843374;" />
      <stop
         style="stop-color:#000000;stop-opacity:0.03921569;"
         offset="0.875"
         id="stop4054" />
      <stop
         style="stop-color:#000000;stop-opacity:0;"
         offset="1"
         id="stop4056" />
    </linearGradient>
    <linearGradient
       id="linearGradient4019">
      <stop
         id="stop4021"
         offset="0"
         style="stop-color:#4d4d4d;stop-opacity:1;" />
      <stop
         id="stop4023"
         offset="1"
         style="stop-color:#373737;stop-opacity:1;" />
    </linearGradient>
    <linearGradient
       id="linearGradient4016">
      <stop
         id="stop4018"
         offset="0"
         style="stop-color:#757575;stop-opacity:1;" />
      <stop
         id="stop4020"
         offset="1"
         style="stop-color:#444444;stop-opacity:1;" />
    </linearGradient>
    <linearGradient
       id="linearGradient6965">
      <stop
         style="stop-color:#757575;stop-opacity:1;"
         offset="0"
         id="stop6968" />
      <stop
         style="stop-color:#4d4d4d;stop-opacity:1;"
         offset="1"
         id="stop6970" />
    </linearGradient>
    <radialGradient
       inkscape:collect="always"
       xlink:href="#linearGradient6423-3"
       id="radialGradient6443-7"
       gradientUnits="userSpaceOnUse"
       gradientTransform="matrix(-3.7213277e-7,-2.1,2.0000005,-3.5441224e-7,361.82823,882.50001)"
       cx="324.04761"
       cy="44.085934"
       fx="324.04761"
       fy="44.085934"
       r="10" />
    <linearGradient
       id="linearGradient6423-3">
      <stop
         style="stop-color:#000000;stop-opacity:1"
         offset="0"
         id="stop6425-0" />
      <stop
         style="stop-color:#000000;stop-opacity:0;"
         offset="1"
         id="stop6427-6" />
    </linearGradient>
    <linearGradient
       inkscape:collect="always"
       xlink:href="#linearGradient4042"
       id="linearGradient5688"
       gradientUnits="userSpaceOnUse"
       gradientTransform="translate(200,14)"
       x1="399"
       y1="124"
       x2="399"
       y2="164.4375" />
    <linearGradient
       inkscape:collect="always"
       xlink:href="#linearGradient4042"
       id="linearGradient5785"
       gradientUnits="userSpaceOnUse"
       gradientTransform="translate(175.125,14)"
       x1="349.875"
       y1="99"
       x2="307.875"
       y2="97.9375" />
    <linearGradient
       inkscape:collect="always"
       xlink:href="#linearGradient4042"
       id="linearGradient5791"
       gradientUnits="userSpaceOnUse"
       gradientTransform="matrix(-1,0,0,1,1020,14)"
       x1="350"
       y1="99"
       x2="307"
       y2="98.9375" />
    <linearGradient
       inkscape:collect="always"
       xlink:href="#linearGradient4042"
       id="linearGradient6612"
       gradientUnits="userSpaceOnUse"
       gradientTransform="translate(200,5)"
       x1="396"
       y1="66"
       x2="395.5"
       y2="20.4375" />
    <radialGradient
       inkscape:collect="always"
       xlink:href="#linearGradient6423-3-7"
       id="radialGradient6443-7-5"
       gradientUnits="userSpaceOnUse"
       gradientTransform="matrix(-3.7213277e-7,-2.1,2.0000005,-3.5441224e-7,-7.17177,882.62501)"
       cx="324.04761"
       cy="44.085934"
       fx="324.04761"
       fy="44.085934"
       r="10" />
    <linearGradient
       id="linearGradient6423-3-7">
      <stop
         style="stop-color:#000000;stop-opacity:1"
         offset="0"
         id="stop6425-0-0" />
      <stop
         style="stop-color:#000000;stop-opacity:0;"
         offset="1"
         id="stop6427-6-7" />
    </linearGradient>
    <radialGradient
       inkscape:collect="always"
       xlink:href="#linearGradient4042"
       id="radialGradient6995"
       gradientUnits="userSpaceOnUse"
       gradientTransform="matrix(-0.028573,-2.5178503,-2.485555,0.02820646,633.35133,975.27942)"
       cx="296.47726"
       cy="80.416679"
       fx="296.47726"
       fy="80.416679"
       r="17.5" />
    <radialGradient
       inkscape:collect="always"
       xlink:href="#linearGradient4042"
       id="radialGradient6192"
       gradientUnits="userSpaceOnUse"
       gradientTransform="matrix(-1.8915386e-6,-2.5464036,2.4571454,-1.8749481e-6,407.40512,875.88421)"
       cx="296.45123"
       cy="80.416672"
       fx="296.45123"
       fy="80.416672"
       r="17.5" />
    <linearGradient
       inkscape:collect="always"
       xlink:href="#linearGradient5391-49-5"
       id="linearGradient5688-2"
       gradientUnits="userSpaceOnUse"
       gradientTransform="translate(200,14)"
       x1="398"
       y1="143"
       x2="398"
       y2="170.9375" />
    <radialGradient
       inkscape:collect="always"
       xlink:href="#linearGradient4042"
       id="radialGradient7795"
       gradientUnits="userSpaceOnUse"
       gradientTransform="matrix(-3.6153023,-0.02913611,0.01698208,-2.1070843,666.43952,572.46969)"
       cx="48.271118"
       cy="181.08371"
       fx="48.271118"
       fy="181.08371"
       r="17.5" />
    <radialGradient
       inkscape:collect="always"
       xlink:href="#linearGradient4042"
       id="radialGradient7795-5"
       gradientUnits="userSpaceOnUse"
       gradientTransform="matrix(-3.6246916,-0.09271149,0.05315689,-2.0782133,660.45896,571.35328)"
       cx="48.020885"
       cy="180.63429"
       fx="48.020885"
       fy="180.63429"
       r="17.5" />
    <linearGradient
       id="linearGradient5391-49-5">
      <stop
         id="stop7028-3-5"
         offset="0"
         style="stop-color:#000000;stop-opacity:1;" />
      <stop
         id="stop7026-0-7"
         offset="0.125"
         style="stop-color:#000000;stop-opacity:0.74096388;" />
      <stop
         id="stop6834-6-1"
         offset="0.25"
         style="stop-color:#000000;stop-opacity:0.60392159;" />
      <stop
         style="stop-color:#000000;stop-opacity:0.15686275;"
         offset="0.75"
         id="stop6836-2-1" />
      <stop
         id="stop6721-0-8"
         offset="1"
         style="stop-color:#000000;stop-opacity:0;" />
    </linearGradient>
    <linearGradient
       inkscape:collect="always"
       xlink:href="#linearGradient5391-49-5"
       id="linearGradient4032"
       gradientUnits="userSpaceOnUse"
       gradientTransform="translate(175.125,14)"
       x1="349.875"
       y1="100.9375"
       x2="304.875"
       y2="100.9375" />
    <radialGradient
       inkscape:collect="always"
       xlink:href="#linearGradient5391-49-5"
       id="radialGradient4034"
       gradientUnits="userSpaceOnUse"
       gradientTransform="matrix(-2.4133136e-5,-2.3464031,2.5642019,-2.6421126e-5,398.80257,816.59575)"
       cx="296.45123"
       cy="80.416672"
       fx="296.45123"
       fy="80.416672"
       r="17.5" />
    <linearGradient
       inkscape:collect="always"
       xlink:href="#linearGradient5391-49-5"
       id="linearGradient4036"
       gradientUnits="userSpaceOnUse"
       gradientTransform="translate(200,5)"
       x1="395.17679"
       y1="66"
       x2="395"
       y2="24.9375" />
    <radialGradient
       inkscape:collect="always"
       xlink:href="#linearGradient5391-49-5"
       id="radialGradient4038"
       gradientUnits="userSpaceOnUse"
       gradientTransform="matrix(4.7630867e-6,-2.3464234,-2.5439972,-5.2180082e-6,629.57842,926.72402)"
       cx="296.47726"
       cy="80.416679"
       fx="296.47726"
       fy="80.416679"
       r="17.5" />
    <linearGradient
       inkscape:collect="always"
       xlink:href="#linearGradient5391-49-5"
       id="linearGradient4040"
       gradientUnits="userSpaceOnUse"
       gradientTransform="matrix(-1,0,0,1,1020,14)"
       x1="350"
       y1="100.9375"
       x2="305"
       y2="100.9375" />
    <radialGradient
       inkscape:collect="always"
       xlink:href="#linearGradient5391-49-5"
       id="radialGradient4044"
       gradientUnits="userSpaceOnUse"
       gradientTransform="matrix(-2.5671603,-2.6453139e-4,1.6519838e-4,-1.5997355,618.88969,489.77185)"
       cx="48.27084"
       cy="177.37585"
       fx="48.27084"
       fy="177.37585"
       r="17.5" />
    <radialGradient
       inkscape:collect="always"
       xlink:href="#linearGradient5391-49-5"
       id="radialGradient4046"
       gradientUnits="userSpaceOnUse"
       gradientTransform="matrix(-2.5612436,-2.6458702e-4,1.6561311e-4,-1.5997355,618.60401,489.77185)"
       cx="48.27084"
       cy="177.37585"
       fx="48.27084"
       fy="177.37585"
       r="17.5" />
    <linearGradient
       inkscape:collect="always"
       xlink:href="#linearGradient1024"
       id="linearGradient1034"
       gradientUnits="userSpaceOnUse"
       x1="764.49573"
       y1="90.842659"
       x2="764.79724"
       y2="115.41462" />
    <linearGradient
       inkscape:collect="always"
       xlink:href="#linearGradient1024"
       id="linearGradient1052"
       x1="396.41779"
       y1="175.75026"
       x2="396.81445"
       y2="199.08478"
       gradientUnits="userSpaceOnUse" />
    <linearGradient
       inkscape:collect="always"
       xlink:href="#linearGradient1024"
       id="linearGradient1060"
       x1="763.08148"
       y1="91.019432"
       x2="763.73651"
       y2="115.06107"
       gradientUnits="userSpaceOnUse" />
    <linearGradient
       inkscape:collect="always"
       xlink:href="#linearGradient1024"
       id="linearGradient1068"
       x1="590.02588"
       y1="91.004189"
       x2="590.50433"
       y2="115.52003"
       gradientUnits="userSpaceOnUse" />
    <linearGradient
       inkscape:collect="always"
       xlink:href="#linearGradient1024"
       id="linearGradient1076"
       x1="481.41779"
       y1="42.357613"
       x2="481.46088"
       y2="64.985031"
       gradientUnits="userSpaceOnUse" />
    <linearGradient
       inkscape:collect="always"
       xlink:href="#linearGradient1024"
       id="linearGradient1084"
       x1="763.43506"
       y1="91.357613"
       x2="763.73657"
       y2="115.5199"
       gradientUnits="userSpaceOnUse" />
    <linearGradient
       inkscape:collect="always"
       xlink:href="#linearGradient1024"
       id="linearGradient1027"
       gradientUnits="userSpaceOnUse"
       x1="592.14734"
       y1="91.180725"
       x2="592.12567"
       y2="115.81335" />
    <linearGradient
       inkscape:collect="always"
       xlink:href="#linearGradient1024"
       id="linearGradient1050"
       gradientUnits="userSpaceOnUse"
       x1="591.617"
       y1="90.666008"
       x2="591.91852"
       y2="116.47541" />
    <linearGradient
       inkscape:collect="always"
       xlink:href="#linearGradient1024"
       id="linearGradient1058"
       gradientUnits="userSpaceOnUse"
       x1="399.423"
       y1="176.00407"
       x2="399.64288"
       y2="200.0457" />
  </defs>
  <metadata
     id="metadata3647">
    <rdf:RDF>
      <cc:Work
         rdf:about="">
        <dc:format>image/svg+xml</dc:format>
        <dc:type
           rdf:resource="http://purl.org/dc/dcmitype/StillImage" />
        <dc:title />
      </cc:Work>
      <cc:Work
         rdf:about="">
        <dc:format>image/svg+xml</dc:format>
        <dc:type
           rdf:resource="http://purl.org/dc/dcmitype/StillImage" />
      </cc:Work>
    </rdf:RDF>
  </metadata>
  <g
     id="layer1"
     inkscape:label="Layer 1"
     inkscape:groupmode="layer"
     transform="translate(0,-90)">
    <g
       transform="translate(-1453.4451,-465.21909)"
       inkscape:label="layer1"
       style="display:none"
       id="g4418" />
    <g
       transform="translate(-1453.4451,-465.21909)"
       inkscape:label="glow"
       style="display:inline"
       id="layer2" />
    <g
       inkscape:label="layer1"
       style="display:none"
       id="g2424"
       transform="translate(975.61592,-1945.0985)" />
    <g
       inkscape:label="glow"
       style="display:inline"
       id="g2426"
       transform="translate(975.61592,-1945.0985)" />
    <g
       inkscape:label="Layer 1"
       id="g3429"
       transform="translate(1021.5937,-976.23581)" />
    <g
       inkscape:label="Layer 1"
       id="g19758"
       transform="translate(2807.8842,-592.77773)" />
    <g
       inkscape:label="Layer 1"
       id="g3935"
       transform="translate(3912.7094,-1471.0471)" />
    <g
       inkscape:label="Layer 1"
       id="g8459"
       transform="translate(1514.8397,-1486.3943)" />
    <g
       inkscape:label="Layer 1"
       id="g28391"
       transform="translate(164.02222,-157.78265)" />
    <g
       inkscape:label="Layer 1"
       id="g28393"
       transform="translate(1268.8474,-1036.052)" />
    <g
       inkscape:label="Layer 1"
       id="g28395"
       transform="translate(-1129.0223,-1051.3992)" />
    <g
       inkscape:label="Layer 1"
       id="g6598"
       transform="translate(2310.5222,-165.78265)" />
    <g
       inkscape:label="Layer 1"
       id="g6640"
       transform="translate(3415.3474,-1044.052)" />
    <g
       inkscape:label="Layer 1"
       id="g6716"
       transform="translate(1017.4777,-1059.3992)" />
    <g
       id="g6850"
       transform="matrix(1,0,0,-1,-153.44508,295.17435)"
       style="opacity:0.45945943" />
    <text
       xml:space="preserve"
       style="font-style:normal;font-variant:normal;font-weight:bold;font-stretch:normal;line-height:0%;font-family:'Gill Sans';text-align:justify;writing-mode:lr-tb;text-anchor:start;fill:#000000;fill-opacity:1;stroke:none"
       x="70.554916"
       y="-207.8569"
       id="text6990"><tspan
         sodipodi:role="line"
         id="tspan6992"
         x="70.554916"
         y="-207.8569"
         style="font-size:14px;line-height:1.25"> </tspan></text>
    <g
       id="g4240"
       style="display:none"
       inkscape:label="layer1"
       transform="translate(-1919.565,-153.36219)" />
    <g
       id="g4242"
       style="display:inline"
       inkscape:label="glow"
       transform="translate(-1919.565,-153.36219)" />
    <g
       transform="translate(509.49601,-1633.2416)"
       id="g4244"
       style="display:none"
       inkscape:label="layer1" />
    <g
       transform="translate(509.49601,-1633.2416)"
       id="g4246"
       style="display:inline"
       inkscape:label="glow" />
    <g
       transform="translate(555.47381,-664.37887)"
       id="g4248"
       inkscape:label="Layer 1" />
    <g
       transform="translate(2341.7643,-280.92083)"
       id="g4250"
       inkscape:label="Layer 1" />
    <g
       transform="translate(3446.5895,-1159.1902)"
       id="g4252"
       inkscape:label="Layer 1" />
    <g
       transform="translate(1048.7198,-1174.5374)"
       id="g4254"
       inkscape:label="Layer 1" />
    <g
       transform="translate(-302.09768,154.07425)"
       id="g4256"
       inkscape:label="Layer 1" />
    <g
       transform="translate(802.72751,-724.19507)"
       id="g4258"
       inkscape:label="Layer 1" />
    <g
       transform="translate(-1595.1422,-739.54227)"
       id="g4260"
       inkscape:label="Layer 1" />
    <g
       transform="translate(1844.4023,146.07425)"
       id="g4262"
       inkscape:label="Layer 1" />
    <g
       transform="translate(2949.2275,-732.19507)"
       id="g4264"
       inkscape:label="Layer 1" />
    <g
       transform="translate(551.35781,-747.54227)"
       id="g4266"
       inkscape:label="Layer 1" />
    <g
       style="opacity:0.45945943"
       transform="matrix(1,0,0,-1,-619.56498,607.03125)"
       id="g4268" />
    <text
       id="text4270"
       y="104.00001"
       x="-395.565"
       style="font-style:normal;font-variant:normal;font-weight:bold;font-stretch:normal;line-height:0%;font-family:'Gill Sans';text-align:justify;writing-mode:lr-tb;text-anchor:start;fill:#000000;fill-opacity:1;stroke:none"
       xml:space="preserve"><tspan
         y="104.00001"
         x="-395.565"
         id="tspan4272"
         sodipodi:role="line"
         style="font-size:14px;line-height:1.25"> </tspan></text>
    <text
       id="text5303"
       y="33.653236"
       x="585.57294"
       style="font-style:normal;font-variant:normal;font-weight:normal;font-stretch:normal;line-height:0%;font-family:Arial;-inkscape-font-specification:Arial;text-align:start;writing-mode:lr-tb;text-anchor:start;fill:#ffffff;fill-opacity:0.7486911;stroke:none"
       xml:space="preserve"><tspan
         y="33.653236"
         x="585.57294"
         id="tspan5305"
         sodipodi:role="line"
         style="font-size:12px;line-height:1"> </tspan></text>
    <text
       id="text10408"
       y="-270.00696"
       x="416.03189"
       style="font-style:normal;font-variant:normal;font-weight:normal;font-stretch:normal;line-height:0%;font-family:Arial;-inkscape-font-specification:Arial;text-align:start;writing-mode:lr-tb;text-anchor:start;fill:#ffffff;fill-opacity:0.7486911;stroke:none"
       xml:space="preserve"><tspan
         y="-270.00696"
         x="416.03189"
         id="tspan10410"
         sodipodi:role="line"
         style="font-size:12px;line-height:1"> </tspan></text>
    <text
       id="text13129"
       y="-175.93504"
       x="461.32416"
       style="font-style:normal;font-variant:normal;font-weight:normal;font-stretch:normal;line-height:0%;font-family:Arial;-inkscape-font-specification:Arial;text-align:start;writing-mode:lr-tb;text-anchor:start;fill:#ffffff;fill-opacity:0.7486911;stroke:none"
       xml:space="preserve"><tspan
         y="-175.93504"
         x="461.32416"
         id="tspan13131"
         sodipodi:role="line"
         style="font-size:12px;line-height:1"> </tspan></text>
    <g
       id="decoration-bottom"
       transform="translate(-215,9.0625)"
       inkscape:label="#g6219">
      <path
         style="fill:url(#linearGradient5688);fill-opacity:1;stroke:none"
         d="m 525,164 0,85 145,0 0,-85 z"
         transform="translate(-200,126)"
         id="path6217-8"
         inkscape:connector-curvature="0"
         sodipodi:nodetypes="ccccc" />
      <path
         transform="translate(0,140)"
         id="path6211-7"
         d="m 470,148.93751 -145,0 0,1.06199 145,0 z"
         style="fill:#0f2626;fill-opacity:1;stroke:none"
         inkscape:connector-curvature="0"
         sodipodi:nodetypes="ccccc" />
    </g>
    <path
       style="fill:#0f1019;fill-opacity:1;stroke:none;opacity:1"
       d="m 110,206.0625 0,91.93751 145,0 0,-91.93751 z"
       id="decoration-center"
       inkscape:connector-curvature="0"
       inkscape:label="#path6149"
       sodipodi:nodetypes="ccccc" />
    <g
       id="decoration-top"
       transform="translate(-215,0.0625)"
       inkscape:label="#g6157">
      <path
         style="opacity:1;fill:url(#linearGradient6612);fill-opacity:1;stroke:none"
         d="m 525,5 0,15 0,6 0,4 0,10 145,0 0,-10 0,-4 0,-6 0,-15 -145,0 z"
         transform="translate(-200,135)"
         id="path6055-5"
         inkscape:connector-curvature="0" />
      <path
         style="fill:url(#linearGradient1058);fill-opacity:1.0;stroke:none;opacity:0.99999999"
         d="M 325,174.9995 V 206 h 145 v -31.0005 z"
         id="path6092-3"
         inkscape:connector-curvature="0"
         sodipodi:nodetypes="ccccc" />
    </g>
    <g
       id="decoration-left"
       transform="translate(-239.875,9.0625)"
       inkscape:label="#g6402">
      <path
         style="fill:url(#linearGradient5785);fill-opacity:1;stroke:none"
         d="m 420.125,71 0.5,91.93751 H 495 V 71 h -10.875 -4 -10.1875 -4.8125 -8 -12 z"
         transform="translate(-175.125,126)"
         id="path6345-1"
         inkscape:connector-curvature="0"
         sodipodi:nodetypes="ccccccccccc" />
      <path
         style="fill:#0f1019;fill-opacity:1;stroke:none;opacity:1"
         d="m 575,121 0,91.93751 30,0 L 605,121 z"
         transform="translate(-255.125,76)"
         id="path6339-9"
         inkscape:connector-curvature="0"
         sodipodi:nodetypes="ccccc" />
    </g>
    <path
       style="opacity:0.65608467;fill:url(#radialGradient6443-7);fill-opacity:1;stroke:none"
       d="m 450,211 -20,0 0,0.0625 20,0 0,-0.0625 z"
       id="path6448-1"
       inkscape:connector-curvature="0" />
    <g
       id="decoration-topleft"
       inkscape:label="#g6334"
       transform="translate(-220,-25.0005)">
      <path
         style="fill:url(#radialGradient6192);fill-opacity:1;stroke:none"
         d="m 518,54.9375 c -9.972,0 -18,8.028 -18,18 l 0,12 0,9 0,1 0,2 0,15 0,8.0625 0,0.9375 0,0.0625 75,0 0,-0.0625 0,-0.9375 0,-8.0625 0,-16 c 0,-4 2,-5.9375 6,-5.9375 l 9,0 10,0 5,0 0,-35 -5,0 0,-0.0625 -10,0 0,0.0625 -10,0 0,-0.0625 -18,0 -2,0 z"
         transform="translate(-275,110.063)"
         id="rect6520-3-2"
         inkscape:connector-curvature="0"
         sodipodi:nodetypes="ssccccccccccccssccccccccccccs" />
      <g
         inkscape:label="#g5343"
         id="6utrh">
        <g
           id="decoration-toplefthaerty"
           inkscape:label="#g5253"
           transform="translate(0,1)">
          <g
             inkscape:label="#g6458"
             transform="translate(-19,25)"
             id="49093u">
            <path
               style="fill:url(#linearGradient1050);fill-opacity:1;stroke:none;opacity:1"
               d="m 581,89.99975 c -4,0 -6,1.938 -6,5.93775 l 0,25.03075 0,0.0625 30,-0.0312 0,-30.99975 z"
               transform="translate(-256,84.063)"
               id="rect5073-4-9"
               inkscape:connector-curvature="0"
               sodipodi:nodetypes="ssccccs" />
          </g>
        </g>
      </g>
    </g>
    <g
       id="decoration-topright"
       inkscape:label="#g6613"
       transform="translate(-170,-25)">
      <path
         style="fill:url(#radialGradient6995);fill-opacity:1;stroke:none"
         d="m 425,165.0625 0,35 24,0 c 4,0 6,1.9375 6,5.9375 l 0,16.0625 0,9 75,0 0,-9 0,-15 0,-2 0,-1 0,-9 0,-12 c 0,-9.972 -8.028,-18 -18,-18 l -42,0 -2,0 -18,0 -10,0 -10,0 z"
         id="rect6520-3"
         inkscape:connector-curvature="0"
         sodipodi:nodetypes="ccssccccccccsscccccc" />
      <g
         inkscape:label="#g6067"
         id="decoration-toprightigb"
         transform="translate(250,0)">
        <g
           transform="matrix(-1,0,0,1,524,26)"
           id="decoration-topright8989"
           inkscape:label="#g6458-7">
          <path
             style="fill:url(#linearGradient1034);fill-opacity:1.0;stroke:none;opacity:1"
             d="m 750,89.9995 0,30.96875 0,0.0625 30,0 0,-0.0625 0,-25.03075 c 0,-4 -2,-5.938 -6,-5.938 z"
             transform="matrix(-1,0,0,1,1099,84.0625)"
             id="rect5073-4-4-8"
             inkscape:connector-curvature="0"
             sodipodi:nodetypes="cccccssc" />
        </g>
      </g>
    </g>
    <g
       id="decoration-right"
       transform="matrix(-1,0,0,1,605,9.0625)"
       inkscape:label="#g6402-2">
      <path
         style="fill:url(#linearGradient5791);fill-opacity:1;stroke:none"
         d="m 700,71 0,91.93751 75,0 L 775,71 l -25,0 -12,0 -8,0 -15,0 -4,0 z"
         transform="matrix(-1,0,0,1,1020,126)"
         id="path6345-7-2"
         inkscape:connector-curvature="0"
         sodipodi:nodetypes="cccccccccc" />
      <path
         style="fill:#0f1019;fill-opacity:1;stroke:none;opacity:1"
         d="m 750,121 0,91.93751 30,0 L 780,121 z"
         transform="matrix(-1,0,0,1,1100,76)"
         id="path6339-8-8"
         inkscape:connector-curvature="0"
         sodipodi:nodetypes="ccccc" />
    </g>
    <path
       style="opacity:0.65608467;fill:url(#radialGradient6443-7-5);fill-opacity:1;stroke:none"
       d="m 81,211.125 -20,0 0,0.0625 20,0 0,-0.0625 z"
       id="path6448-1-3"
       inkscape:connector-curvature="0" />
    <text
       xml:space="preserve"
       style="font-style:normal;font-variant:normal;font-weight:normal;font-stretch:normal;line-height:0%;font-family:'Droid Sans';-inkscape-font-specification:'Droid Sans';letter-spacing:0px;word-spacing:0px;fill:#000000;fill-opacity:1;stroke:none"
       x="439.5"
       y="46.25"
       id="text7241"
       transform="translate(0,50)"><tspan
         sodipodi:role="line"
         id="tspan7243"
         x="439.5"
         y="46.25"
         style="font-size:14px;line-height:1.25"> </tspan><tspan
         sodipodi:role="line"
         id="tspan7245"
         x="439.5"
         y="63.75"
         style="font-size:14px;line-height:1.25"> </tspan></text>
    <g
       id="decoration-inactive-bottom"
       transform="translate(145,9.0625)"
       inkscape:label="#g6219">
      <path
         style="opacity:0.95;fill:url(#linearGradient5688-2);fill-opacity:1;stroke:none"
         d="m 525,164 0,85 145,0 c 0,-28.33333 0,-56.66667 0,-85 z"
         transform="translate(-200,126)"
         id="path6217-8-2"
         inkscape:connector-curvature="0"
         sodipodi:nodetypes="ccccc" />
      <path
         transform="translate(0,140)"
         id="path6211-7-5"
         d="m 470,148.9375 -145,0 0,1.062 145,0 z"
         style="fill:#0f2626;fill-opacity:1;stroke:none"
         inkscape:connector-curvature="0"
         sodipodi:nodetypes="ccccc" />
    </g>
    <path
       style="fill:#0f1019;fill-opacity:1;stroke:none;opacity:1"
       d="m 470,206.0625 0,91.9375 145,0 0,-91.9375 z"
       id="decoration-inactive-center"
       inkscape:connector-curvature="0"
       inkscape:label="#path6149"
       sodipodi:nodetypes="ccccc" />
    <g
       id="decoration-inactive-top"
       transform="translate(145,0.0625)"
       inkscape:label="#g6157">
      <path
         style="opacity:0.95;fill:url(#linearGradient4036);fill-opacity:1;stroke:none"
         d="m 525,5 0,15 0,6 0,4 0,10 145,0 0,-10 0,-4 0,-6 0,-15 -145,0 z"
         transform="translate(-200,135)"
         id="path6055-5-5"
         inkscape:connector-curvature="0" />
      <path
         style="fill:url(#linearGradient1052);fill-opacity:1.0;stroke:none;opacity:0.99999999"
         d="m 325,175.0995 v 31 h 145 v -31 z"
         id="path6092-3-3"
         inkscape:connector-curvature="0"
         sodipodi:nodetypes="ccccc" />
    </g>
    <g
       id="decoration-inactive-left"
       transform="translate(120.125,9.0625)"
       inkscape:label="#g6402">
      <path
         style="opacity:0.95;fill:url(#linearGradient4032);fill-opacity:1;stroke:none"
         d="m 420.125,71 0,91.9375 74.875,0 0,-91.9375 -10.875,0 -4,0 -10.1875,0 -4.8125,0 -8,0 -12,0 z"
         transform="translate(-175.125,126)"
         id="path6345-1-1"
         inkscape:connector-curvature="0"
         sodipodi:nodetypes="ccccccccccc" />
      <path
         inkscape:connector-curvature="0"
         style="fill:#0f1019;fill-opacity:1;stroke:none;opacity:1"
         d="m 575,121 0,91.9375 30,0 L 605,121 z"
         transform="translate(-255.125,76)"
         id="path6339-9-9"
         sodipodi:nodetypes="ccccc" />
    </g>
    <g
       id="decoration-inactive-topleft"
       inkscape:label="#g6334"
       transform="translate(140,-25.0005)">
      <path
         inkscape:connector-curvature="0"
         style="opacity:0.94999999999999996;fill:url(#radialGradient4034);fill-opacity:1;stroke:none"
         d="m 518,54.9375 c -9.972,0 -18,8.028 -18,18 l 0,12 0,9 0,1 0,2 0,15 0,8.0625 0,0.9375 0,0.0625 75,0 0,-0.0625 0,-0.9375 0,-8.0625 0,-16 c 0,-4 2,-5.938222 6,-5.938 l 9,5e-4 10,0 5,0 0,-35 -5,0 0,-0.0625 -10,0 0,0.0625 -10,0 0,-0.0625 -18,0 -2,0 z"
         transform="translate(-275,110.063)"
         id="rect6520-3-2-6"
         sodipodi:nodetypes="ssccccccccccccssccccccccccccs" />
      <g
         inkscape:label="#g5343"
         id="6utrh-9">
        <g
           id="decoration-toplefthaerty-5"
           inkscape:label="#g5253"
           transform="translate(0,1)">
          <g
             inkscape:label="#g6458"
             transform="translate(-19,25)"
             id="49093u-9">
            <path
               inkscape:connector-curvature="0"
               style="fill:url(#linearGradient1027);fill-opacity:1.0;stroke:none;opacity:1"
               d="m 581,89.99975 c -4,0 -6,1.938 -6,5.93775 l 0,25.062 30,0 0,-30.99975 z"
               transform="translate(-256,84.063)"
               id="rect5073-4-9-6"
               sodipodi:nodetypes="sscccs" />
          </g>
        </g>
      </g>
    </g>
    <g
       id="decoration-inactive-topright"
       inkscape:label="#g6613"
       transform="translate(190,-25)">
      <path
         style="opacity:0.94999999999999996;fill:url(#radialGradient4038);fill-opacity:1;stroke:none"
         d="m 425,165.0625 0,35 24,0 c 4,0 6,1.9375 6,5.9375 l 0,16.0625 0,9 75,0 0,-9 0,-15 0,-2 0,-1 0,-9 0,-12 c 0,-9.972 -8.028,-18 -18,-18 l -42,0 -2,0 -18,0 -10,0 -10,0 z"
         id="rect6520-3-8"
         inkscape:connector-curvature="0"
         sodipodi:nodetypes="ccssccccccccsscccccc" />
      <g
         inkscape:label="#g6067"
         id="decoration-toprightigb-8"
         transform="translate(250,0)">
        <g
           transform="matrix(-1,0,0,1,524,26)"
           id="decoration-topright8989-1"
           inkscape:label="#g6458-7">
          <path
             inkscape:connector-curvature="0"
             style="fill:url(#linearGradient1060);fill-opacity:1.0;stroke:none;opacity:1"
             d="m 750,89.9995 0,30.96875 0,0.0625 30,0 0,-0.0625 0,-25.03075 c 0,-4 -2,-5.938 -6,-5.938 z"
             transform="matrix(-1,0,0,1,1099,84.0625)"
             id="rect5073-4-4-8-8"
             sodipodi:nodetypes="cccccssc" />
        </g>
      </g>
    </g>
    <g
       id="decoration-inactive-right"
       transform="matrix(-1,0,0,1,965,9.0625)"
       inkscape:label="#g6402-2">
      <path
         style="opacity:0.95;fill:url(#linearGradient4040);fill-opacity:1;stroke:none"
         d="m 700,71 0,91.9375 75,0 0,-91.9375 -25,0 -12,0 -8,0 -15,0 -4,0 z"
         transform="matrix(-1,0,0,1,1020,126)"
         id="path6345-7-2-6"
         inkscape:connector-curvature="0"
         sodipodi:nodetypes="cccccccccc" />
      <path
         inkscape:connector-curvature="0"
         style="fill:#0f1019;fill-opacity:1;stroke:none;opacity:1"
         d="m 750,121 0,91.9375 30,0 L 780,121 z"
         transform="matrix(-1,0,0,1,1100,76)"
         id="path6339-8-8-9"
         sodipodi:nodetypes="ccccc" />
    </g>
    <text
       xml:space="preserve"
       style="font-style:normal;font-variant:normal;font-weight:normal;font-stretch:normal;line-height:0%;font-family:'Droid Sans';-inkscape-font-specification:'Droid Sans';letter-spacing:0px;word-spacing:0px;fill:#000000;fill-opacity:1;stroke:none"
       x="411.71292"
       y="62.33585"
       id="text7073"
       transform="translate(0,90)"><tspan
         sodipodi:role="line"
         id="tspan7075"
         x="411.71292"
         y="62.33585"
         style="font-size:14px;line-height:1.25"> </tspan></text>
    <g
       transform="matrix(-1,0,0,1,750,-3.9375146)"
       id="decoration-bottomright"
       inkscape:label="#g7801">
      <g
         transform="matrix(1,0,0,0.99932111,165,-10.666582)"
         inkscape:label="#g5246"
         id="hrh">
        <path
           inkscape:connector-curvature="0"
           id="rect5099-9"
           transform="matrix(1,0,0,1.0006794,-165,100.73497)"
           d="m 390,211.93751 0,40.96874 0,15 c 0,16.60872 13.38,29.96875 30,29.96875 l 15,0 60,0.0625 0,-84.9375 -30,0 0,-1.06249 z"
           style="fill:url(#radialGradient7795);fill-opacity:1;stroke:none"
           sodipodi:nodetypes="ccsscccccc" />
        <g
           id="decoration-bottomleft57547-54"
           transform="translate(-20,24)"
           inkscape:label="#g6297">
          <g
             id="g6659-3-3" />
        </g>
      </g>
      <path
         style="fill:#0f2626;fill-opacity:1;stroke:none"
         d="m 465,301.93751 30,0 0,1.062 -30,0 z"
         id="rect7023"
         inkscape:connector-curvature="0"
         sodipodi:nodetypes="ccccc" />
    </g>
    <g
       transform="translate(-385,-3.9375146)"
       id="decoration-bottomleft"
       inkscape:label="#g7801">
      <g
         transform="matrix(1,0,0,0.99932111,165,-10.666582)"
         inkscape:label="#g5246"
         id="hrh-6">
        <path
           inkscape:connector-curvature="0"
           id="rect5099-9-5"
           transform="matrix(1,0,0,1.0006794,-165,100.73497)"
           d="m 390,211.93751 0,40.96874 0,15 c 0,16.60872 13.38,29.96875 30,29.96875 l 15,0 60,0.0625 0,-84.9375 -30,0 0,-1.06249 z"
           style="fill:url(#radialGradient7795-5);fill-opacity:1;stroke:none"
           sodipodi:nodetypes="ccsscccccc" />
        <g
           id="decoration-bottomleft57547-54-5"
           transform="translate(-20,24)"
           inkscape:label="#g6297">
          <g
             id="g6659-3-3-0" />
        </g>
      </g>
      <path
         style="fill:#0f2626;fill-opacity:1;stroke:none"
         d="m 465,301.93751 30,0 0,1.062 -30,0 z"
         id="rect7023-1"
         inkscape:connector-curvature="0"
         sodipodi:nodetypes="ccccc" />
    </g>
    <g
       transform="translate(-24.5,-3.93751)"
       id="decoration-inactive-bottomleft"
       inkscape:label="#g7801">
      <g
         transform="matrix(1,0,0,0.99932111,165,-10.666582)"
         inkscape:label="#g5246"
         id="hrh-3">
        <path
           inkscape:connector-curvature="0"
           id="rect5099-9-6"
           transform="matrix(1,0,0,1.0006794,-165,100.73497)"
           d="m 390,211.9375 v 40.96875 15 c 0,16.60872 13.38,29.96875 30,29.96875 h 15 l 60,0.0625 V 213 h -30 v -1.0625 z"
           style="opacity:0.95;fill:url(#radialGradient4044);fill-opacity:1;stroke:none"
           sodipodi:nodetypes="ccsscccccc" />
        <g
           id="decoration-bottomleft57547-54-2"
           transform="translate(-20,24)"
           inkscape:label="#g6297">
          <g
             id="g6659-3-3-4" />
        </g>
      </g>
      <path
         style="fill:#0f2626;fill-opacity:1;stroke:none"
         d="m 465,301.9375 h 30 v 1.06201 h -30 z"
         id="rect7023-9"
         inkscape:connector-curvature="0"
         sodipodi:nodetypes="ccccc" />
    </g>
    <g
       transform="matrix(-1,0,0,1,1110,-3.93751)"
       id="decoration-inactive-bottomright"
       inkscape:label="#g7801">
      <g
         transform="matrix(1,0,0,0.99932111,165,-10.666582)"
         inkscape:label="#g5246"
         id="hrh-3-8">
        <path
           inkscape:connector-curvature="0"
           id="rect5099-9-6-2"
           transform="matrix(1,0,0,1.0006794,-165,100.73497)"
           d="m 390,211.9375 0,40.96875 0,15 c 0,16.60872 13.38,29.96875 30,29.96875 l 15,0 60,0.0625 0,-84.9375 -30,0 0,-1.0625 z"
           style="opacity:0.95;fill:url(#radialGradient4046);fill-opacity:1;stroke:none"
           sodipodi:nodetypes="ccsscccccc" />
        <g
           id="decoration-bottomleft57547-54-2-0"
           transform="translate(-20,24)"
           inkscape:label="#g6297">
          <g
             id="g6659-3-3-4-6" />
        </g>
      </g>
      <path
         style="fill:#0f2626;fill-opacity:1;stroke:none"
         d="m 465,301.9375 30,0 0,1.06201 -30,0 z"
         id="rect7023-9-5"
         inkscape:connector-curvature="0"
         sodipodi:nodetypes="ccccc" />
    </g>
    <g
       inkscape:label="#g6219"
       transform="translate(-214.29289,348.47375)"
       id="decoration-maximized-bottom"
       style="fill:#31363b;fill-opacity:1;opacity:1">
      <path
         sodipodi:nodetypes="ccccc"
         inkscape:connector-curvature="0"
         style="fill:#0f1019;fill-opacity:1;stroke:none;opacity:1"
         d="m 470,143 -145,0 0,6.9995 145,0 z"
         id="path3211"
         transform="translate(0,140)" />
    </g>
    <path
       inkscape:label="#path6149"
       inkscape:connector-curvature="0"
       id="decoration-maximized-center"
       d="m 110.70711,545.47375 0,86 145,0 0,-86 -145,0 z"
       style="fill:#0f1019;fill-opacity:1;stroke:none;opacity:1" />
    <g
       inkscape:label="#g6157"
       transform="translate(-214.29289,339.47375)"
       id="decoration-maximized-top"
       style="fill:#31363b;fill-opacity:1;opacity:1">
      <path
         sodipodi:nodetypes="ccccc"
         inkscape:connector-curvature="0"
         id="path3219"
         transform="translate(-85,134)"
         d="M 410,40.9995 410,72 l 145,0 0,-31.0005 z"
         style="fill:url(#linearGradient1076);fill-opacity:1;stroke:none;opacity:1" />
    </g>
    <g
       inkscape:label="#g6402"
       transform="translate(-239.16789,348.47375)"
       id="decoration-maximized-left"
       style="fill:#31363b;fill-opacity:1;opacity:1">
      <path
         sodipodi:nodetypes="ccccc"
         inkscape:connector-curvature="0"
         id="path3225"
         d="m 575,121 0,86 30,0 0,-86 z"
         style="fill:#0f1019;fill-opacity:1;stroke:none;opacity:0.99999999"
         transform="translate(-255.125,76)" />
    </g>
    <g
       transform="translate(-219.29289,314.41075)"
       inkscape:label="#g6334"
       id="decoration-maximized-topleft"
       style="fill:#31363b;fill-opacity:1;opacity:1">
      <g
         id="g3231"
         inkscape:label="#g5343"
         style="fill:#31363b;fill-opacity:1">
        <g
           transform="translate(0,1)"
           inkscape:label="#g5253"
           id="g3233"
           style="fill:#31363b;fill-opacity:1">
          <g
             id="g3235"
             transform="translate(-19,25)"
             inkscape:label="#g6458"
             style="fill:#31363b;fill-opacity:1">
            <path
               sodipodi:nodetypes="cccccc"
               inkscape:connector-curvature="0"
               id="path3237"
               transform="translate(-256,84.063)"
               d="M 574.99989,90.00025 575,120.9375 575,121 l 30,0 0,-31.00025 z"
               style="fill:url(#linearGradient1068);fill-opacity:1;stroke:none;opacity:1" />
          </g>
        </g>
      </g>
    </g>
    <g
       transform="translate(-169.29289,314.41125)"
       inkscape:label="#g6613"
       id="decoration-maximized-topright"
       style="fill:#31363b;fill-opacity:1;opacity:1">
      <g
         transform="translate(250,0)"
         id="g3243"
         inkscape:label="#g6067"
         style="fill:#31363b;fill-opacity:1">
        <g
           inkscape:label="#g6458-7"
           id="g3245"
           transform="matrix(-1,0,0,1,524,26)"
           style="fill:#31363b;fill-opacity:1">
          <path
             sodipodi:nodetypes="cccccc"
             inkscape:connector-curvature="0"
             id="path3247"
             transform="matrix(-1,0,0,1,1099,84.0625)"
             d="m 750,89.9995 0,30.938 0,0.0625 30,0 -1.1e-4,-30.99975 z"
             style="fill:url(#linearGradient1084);fill-opacity:1;stroke:none;opacity:1" />
        </g>
      </g>
    </g>
    <g
       inkscape:label="#g6402-2"
       transform="matrix(-1,0,0,1,605.70711,348.47375)"
       id="decoration-maximized-right"
       style="fill:#31363b;fill-opacity:1;opacity:1">
      <path
         sodipodi:nodetypes="ccccc"
         inkscape:connector-curvature="0"
         id="path3253"
         transform="matrix(-1,0,0,1,1100,76)"
         d="m 750,121 0,86 30,0 0,-86 z"
         style="fill:#0f1019;fill-opacity:1;stroke:none;opacity:1" />
    </g>
    <g
       inkscape:label="#g7801"
       id="decoration-maximized-bottomright"
       transform="matrix(-1,0,0,1,750.70711,335.47374)"
       style="fill:#31363b;fill-opacity:1;opacity:1">
      <g
         id="g3259"
         inkscape:label="#g5246"
         transform="matrix(1,0,0,0.99932111,165,-10.666582)"
         style="fill:#31363b;fill-opacity:1">
        <g
           inkscape:label="#g6297"
           transform="translate(-20,24)"
           id="g3263"
           style="fill:#31363b;fill-opacity:1">
          <g
             id="g3265"
             style="fill:#31363b;fill-opacity:1" />
        </g>
      </g>
      <path
         sodipodi:nodetypes="ccccc"
         inkscape:connector-curvature="0"
         id="path3267"
         d="m 465,296 30,0 0,6.99951 -30,0 z"
         style="fill:#0f1019;fill-opacity:1;stroke:none;opacity:1" />
    </g>
    <g
       inkscape:label="#g7801"
       id="decoration-maximized-bottomleft"
       transform="translate(-384.29289,335.47374)"
       style="fill:#31363b;fill-opacity:1;opacity:1">
      <g
         id="g3271"
         inkscape:label="#g5246"
         transform="matrix(1,0,0,0.99932111,165,-10.666582)"
         style="fill:#31363b;fill-opacity:1">
        <g
           inkscape:label="#g6297"
           transform="translate(-20,24)"
           id="g3275"
           style="fill:#31363b;fill-opacity:1">
          <g
             id="g3277"
             style="fill:#31363b;fill-opacity:1" />
        </g>
      </g>
      <path
         sodipodi:nodetypes="ccccc"
         inkscape:connector-curvature="0"
         id="path3279"
         d="m 465,296 30,0 0,6.99951 -30,0 z"
         style="fill:#0f1019;fill-opacity:1;stroke:none;opacity:1" />
    </g>
    <rect
       style="opacity:1;fill:#0f1019;fill-opacity:1;fill-rule:nonzero;stroke:none"
       id="hint-stretch-borders"
       width="20"
       height="20"
       x="36.062447"
       y="116.95628" />
  </g>
</svg>
