<?xml version="1.0" encoding="UTF-8" standalone="no"?>
<svg
   height="64"
   width="64"
   version="1.1"
   id="svg1886"
   sodipodi:docname="dropbox.svg"
   inkscape:version="1.2.2 (b0a8486541, 2022-12-01)"
   xmlns:inkscape="http://www.inkscape.org/namespaces/inkscape"
   xmlns:sodipodi="http://sodipodi.sourceforge.net/DTD/sodipodi-0.dtd"
   xmlns:xlink="http://www.w3.org/1999/xlink"
   xmlns="http://www.w3.org/2000/svg"
   xmlns:svg="http://www.w3.org/2000/svg">
  <defs
     id="defs1890">
    <linearGradient
       id="m"
       x1="68.210472"
       x2="148.52051"
       y1="177.75131"
       y2="258.06134"
       gradientUnits="userSpaceOnUse"
       gradientTransform="matrix(0.37626177,0,0,0.37626188,-16.518336,-57.726176)">
      <stop
         stop-color="#59f"
         offset="0"
         id="stop3371" />
      <stop
         stop-color="#06f"
         offset="1"
         id="stop3373" />
    </linearGradient>
    <linearGradient
       id="l"
       x1="220.30621"
       x2="54.439178"
       y1="207.9187"
       y2="42.051666"
       gradientTransform="matrix(0.16799417,0,0,0.1635966,5.9313038,-1.9414957)"
       gradientUnits="userSpaceOnUse"
       xlink:href="#a-3" />
    <linearGradient
       id="a-3">
      <stop
         stop-color="#2a7fff"
         offset="0"
         id="stop3327" />
      <stop
         stop-color="#0cf"
         offset="1"
         id="stop3329" />
    </linearGradient>
    <linearGradient
       id="linearGradient2356">
      <stop
         offset="0"
         id="stop2" />
      <stop
         offset="1"
         stop-opacity="0"
         id="stop4" />
    </linearGradient>
    <linearGradient
       inkscape:collect="always"
       xlink:href="#linearGradient22063"
       id="linearGradient22065"
       x1="-14"
       y1="6"
       x2="-14"
       y2="-9.999999"
       gradientUnits="userSpaceOnUse"
       gradientTransform="matrix(3.6250002,0,0,3.6250002,82.750002,39.249999)" />
    <linearGradient
       inkscape:collect="always"
       id="linearGradient22063">
      <stop
         style="stop-color:#292f3a;stop-opacity:1;"
         offset="0"
         id="stop22059" />
      <stop
         style="stop-color:#535e75;stop-opacity:1;"
         offset="1"
         id="stop22061" />
    </linearGradient>
    <linearGradient
       id="a-36"
       y1="543.79999"
       y2="503.79999"
       x2="0"
       gradientUnits="userSpaceOnUse">
      <stop
         stop-color="#faae2a"
         id="stop323" />
      <stop
         offset="1"
         stop-color="#ffc35a"
         id="stop325" />
    </linearGradient>
    <linearGradient
       id="b-7"
       y1="34"
       y2="13"
       x2="0"
       gradientUnits="userSpaceOnUse">
      <stop
         stop-color="#2a2c2f"
         id="stop328-5" />
      <stop
         offset="1"
         stop-color="#424649"
         id="stop330-3" />
    </linearGradient>
    <linearGradient
       id="c-56"
       y1="13"
       x1="13"
       y2="31"
       x2="31"
       gradientUnits="userSpaceOnUse">
      <stop
         stop-color="#383e51"
         id="stop333" />
      <stop
         offset="1"
         stop-color="#655c6f"
         stop-opacity="0"
         id="stop335" />
    </linearGradient>
  </defs>
  <sodipodi:namedview
     id="namedview1888"
     pagecolor="#ffffff"
     bordercolor="#666666"
     borderopacity="1.0"
     inkscape:showpageshadow="2"
     inkscape:pageopacity="0"
     inkscape:pagecheckerboard="true"
     inkscape:deskcolor="#d1d1d1"
     showgrid="false"
     inkscape:zoom="27.812867"
     inkscape:cx="18.282905"
     inkscape:cy="32.754624"
     inkscape:window-width="1899"
     inkscape:window-height="2126"
     inkscape:window-x="1921"
     inkscape:window-y="1112"
     inkscape:window-maximized="0"
     inkscape:current-layer="svg1886" />
  <linearGradient
     id="a">
    <stop
       offset="0"
       id="stop1845" />
    <stop
       offset="1"
       stop-opacity="0"
       id="stop1847" />
  </linearGradient>
  <linearGradient
     id="b"
     gradientUnits="userSpaceOnUse"
     x1="16"
     x2="34.942001"
     xlink:href="#a"
     y1="11"
     y2="29.941999" />
  <linearGradient
     id="c"
     gradientTransform="rotate(45)"
     gradientUnits="userSpaceOnUse"
     x1="31.021"
     x2="43.104"
     xlink:href="#a"
     y1="-9.8959999"
     y2="-9.8959999" />
  <linearGradient
     id="d"
     gradientUnits="userSpaceOnUse"
     x1="23.716"
     x2="26.348"
     xlink:href="#a"
     y1="13.219"
     y2="15.851" />
  <linearGradient
     id="e"
     gradientTransform="matrix(1.0454421,0,0,1.0298842,46.076843,3.856842)"
     gradientUnits="userSpaceOnUse"
     x1="-45.221867"
     x2="0.69172603"
     y1="-4.91011"
     y2="41.697075">
    <stop
       offset="0"
       stop-color="#2bc0ff"
       id="stop1853" />
    <stop
       offset="1"
       stop-color="#1d99f3"
       id="stop1855" />
  </linearGradient>
  <path
     id="path736"
     style="fill:#606c86;fill-opacity:1;stroke-width:3.625"
     d="M 10.25 3 C 6.245942 3 3 6.245829 3 10.25 L 3 53.75 C 3 57.754169 6.245942 61 10.25 61 L 53.75 61 C 57.754166 61 61 57.754169 61 53.75 L 61 10.25 C 61 6.245829 57.754166 3 53.75 3 L 10.25 3 z M 22.308594 9.1875 L 32 15.648438 L 41.691406 9.1875 L 54.615234 17.263672 L 44.923828 23.726562 L 54.615234 30.1875 L 41.691406 38.263672 L 32 31.802734 L 22.308594 38.263672 L 9.3847656 30.1875 L 19.076172 23.726562 L 9.3847656 17.263672 L 22.308594 9.1875 z M 19.076172 23.726562 L 32 31.802734 L 44.923828 23.726562 L 32 15.648438 L 19.076172 23.726562 z M 32 35.683594 L 41.634766 42.107422 L 44.923828 40.050781 L 44.923828 40.548828 L 44.923828 43.451172 L 32.025391 51.1875 L 19.076172 43.425781 L 19.076172 40.517578 L 19.076172 40.050781 L 22.365234 42.107422 L 32 35.683594 z " />
  <path
     id="path738"
     style="fill:url(#linearGradient22065);fill-opacity:1;stroke-width:3.625"
     d="M 10.25 3 C 6.245942 3 3 6.0431922 3 9.796875 L 3 50.578125 C 3 54.331814 6.245942 57.375 10.25 57.375 L 53.75 57.375 C 57.754166 57.375 61 54.331814 61 50.578125 L 61 9.796875 C 61 6.0431922 57.754166 3 53.75 3 L 10.25 3 z M 22.308594 9.1875 L 32 15.648438 L 41.691406 9.1875 L 54.615234 17.263672 L 44.923828 23.726562 L 54.615234 30.1875 L 41.691406 38.263672 L 32 31.802734 L 22.308594 38.263672 L 9.3847656 30.1875 L 19.076172 23.726562 L 9.3847656 17.263672 L 22.308594 9.1875 z M 19.076172 23.726562 L 32 31.802734 L 44.923828 23.726562 L 32 15.648438 L 19.076172 23.726562 z M 32 35.683594 L 41.634766 42.107422 L 44.923828 40.050781 L 44.923828 40.548828 L 44.923828 43.451172 L 32.025391 51.1875 L 19.076172 43.425781 L 19.076172 40.517578 L 19.076172 40.050781 L 22.365234 42.107422 L 32 35.683594 z " />
</svg>
